<svg width="286" height="205" viewBox="0 0 286 205" fill="none" xmlns="http://www.w3.org/2000/svg">
<g clip-path="url(#clip0_2_18)">
<path opacity="0.1" d="M95.0831 204.885C109.011 204.885 120.302 203.05 120.302 200.786C120.302 198.522 109.011 196.687 95.0831 196.687C81.1552 196.687 69.8643 198.522 69.8643 200.786C69.8643 203.05 81.1552 204.885 95.0831 204.885Z" fill="#4686FF"/>
<path opacity="0.1" d="M232.169 205C249.549 205 263.638 203.165 263.638 200.901C263.638 198.638 249.549 196.803 232.169 196.803C214.789 196.803 200.7 198.638 200.7 200.901C200.7 203.165 214.789 205 232.169 205Z" fill="#4686FF"/>
<path opacity="0.1" d="M3.58199 88.5747H29.849V124.803H5.50498C5.44027 125.175 5.37816 125.55 5.31087 125.924H29.849V155.142C29.805 155.129 29.7662 155.113 29.7248 155.097C29.0312 154.82 28.3427 154.527 27.6543 154.212L27.2143 154.011C26.5241 153.681 25.834 153.331 25.1438 152.963C24.9031 152.835 24.6624 152.701 24.4243 152.565C20.5928 150.393 17.112 147.641 14.1028 144.404C14.0148 144.318 13.932 144.226 13.844 144.142C13.4247 143.681 13.0132 143.215 12.6146 142.738L12.1746 142.215C11.7036 141.631 11.2481 141.031 10.8055 140.423C10.7408 140.334 10.6787 140.245 10.6114 140.161C8.81145 137.636 7.31694 134.901 6.15978 132.016C6.12354 131.93 6.09249 131.835 6.05884 131.754C5.7034 130.829 5.38851 129.895 5.11417 128.952C4.99511 128.556 4.88124 128.166 4.78289 127.755C4.74665 127.635 4.71559 127.517 4.68712 127.399C3.21706 121.593 3.04366 115.561 3.04366 109.571C3.04366 108.872 3.04366 108.17 3.04366 107.476C3.04366 105.054 3.07213 102.615 3.11354 100.18C3.11354 99.5484 3.13942 98.9198 3.15236 98.286C3.18859 96.678 3.24035 95.0699 3.30765 93.4618C3.32317 93.014 3.34388 92.5687 3.36717 92.1235C3.36717 91.8668 3.38011 91.6102 3.406 91.3535C3.46811 90.4211 3.51987 89.4966 3.58199 88.5747Z" fill="#4686FF"/>
<path opacity="0.1" d="M29.849 48.2368H15.4409C17.783 44.5272 20.342 40.9625 23.1043 37.5618C25.2447 34.9009 27.5042 32.308 29.849 29.8095V48.2368Z" fill="#4686FF"/>
<path opacity="0.1" d="M29.849 49.3578V87.4538H3.66481C3.66481 87.3438 3.68293 87.2312 3.69069 87.1212C3.71398 86.82 3.73728 86.5188 3.76316 86.2203C3.79163 85.8693 3.82269 85.5158 3.85633 85.1727C3.88998 84.8296 3.92621 84.4105 3.96503 84.0308C4.00386 83.651 4.04009 83.266 4.08409 82.8863C4.12809 82.5065 4.16691 82.1268 4.2135 81.7496C4.26008 81.3725 4.30149 80.9901 4.35067 80.613C4.38949 80.2987 4.4309 79.987 4.47231 79.6728C4.53184 79.2301 4.59395 78.7849 4.66124 78.3449C4.66124 78.2794 4.67936 78.2113 4.68971 78.1485C5.1621 74.9275 5.80575 71.7347 6.61788 68.5839C7.46798 65.2787 8.55352 62.0401 9.866 58.8936C11.2609 55.6019 12.8942 52.419 14.7524 49.3709L29.849 49.3578Z" fill="#4686FF"/>
<path opacity="0.1" d="M36.1201 88.5723V124.804H92.2233V88.5723H36.1201ZM36.1201 125.922V157.036C36.441 157.104 36.7594 157.169 37.0751 157.224C37.5048 157.308 37.9318 157.384 38.3692 157.449C38.452 157.463 38.5374 157.476 38.628 157.484C38.7988 157.512 38.9748 157.536 39.1456 157.559C39.5779 157.62 40.0075 157.669 40.4397 157.709C40.6442 157.73 40.8512 157.748 41.0583 157.764L41.5578 157.803C41.8295 157.824 42.0987 157.84 42.3653 157.848C42.5309 157.848 42.6966 157.863 42.8674 157.868C42.9968 157.868 43.1262 157.868 43.2608 157.868C43.3954 157.868 43.5869 157.868 43.7499 157.868C43.9725 157.868 44.1951 157.868 44.4151 157.868H44.7127C44.9353 157.868 45.1579 157.869 45.3779 157.848H45.3934C45.5461 157.848 45.7014 157.848 45.8567 157.827C45.8998 157.829 45.943 157.829 45.9861 157.827C46.1155 157.827 46.2449 157.827 46.3691 157.808H46.4597L47.3268 157.74C47.6115 157.714 47.8987 157.68 48.1886 157.649L48.7787 157.578C51.1794 157.237 53.5534 156.726 55.8832 156.048C61.1164 154.571 66.2357 152.505 71.4664 150.991C78.2292 149.04 85.7011 148.081 92.2362 150.467V125.922H36.1201ZM92.2233 48.237V0.00273431C86.0809 -0.0646065 79.9552 0.662378 73.995 2.16603C59.7887 5.77764 47.0421 13.6111 36.1201 23.6157V48.2343H38.936V49.3526H36.1201V87.4539H92.2233V49.3553H50.4972V48.237H92.2233ZM164.285 31.9441C160.77 31.8184 157.276 30.6922 154.116 28.9532C148.073 25.6271 143.246 20.4912 137.852 16.1568C126.646 7.12905 112.747 1.68152 98.4891 0.33011V48.237H178.579L178.778 48.0248L164.285 31.9441ZM171.581 30.6346L179.317 39.225V28.3823C176.726 28.707 174.456 29.4796 171.591 30.6241L171.581 30.6346ZM179.317 164.762V125.922H162.833C162.789 125.757 162.745 125.589 162.693 125.422C162.742 125.589 162.784 125.757 162.83 125.922H98.4995V154.011C99.1103 154.469 99.7133 154.951 100.311 155.441C100.956 155.964 101.592 156.517 102.232 157.059L102.876 157.599C103.184 157.861 103.495 158.123 103.808 158.369C104.429 158.879 105.056 159.381 105.689 159.877C106.003 160.139 106.323 160.375 106.642 160.621C111.696 164.531 117.027 168.06 122.593 171.178C123.84 171.877 125.099 172.558 126.369 173.224C127.215 173.661 128.066 174.096 128.921 174.518C130.204 175.151 131.498 175.762 132.803 176.351C144.829 181.814 157.546 185.562 170.59 187.489C173.487 187.922 176.395 188.263 179.314 188.511V164.759H179.573L179.317 164.762ZM98.4995 49.3553V87.4539H179.327V49.3553H98.4995ZM98.4995 88.5723V124.804H179.327V88.5723H98.4995ZM185.601 28.3351V40.4297L195.475 29.4665C192.203 28.9323 188.912 28.5508 185.601 28.322V28.3351ZM185.601 88.5853V124.804H264.216V88.5723L185.601 88.5853ZM263.928 167.637L264.205 125.922H185.601V188.927C190.665 189.143 195.736 189.081 200.793 188.744H200.881C203.297 188.59 205.701 188.367 208.094 188.073H208.149C220.916 186.57 233.4 183.199 245.211 178.066M279.374 94.5383C279.079 93.8338 278.771 93.1346 278.458 92.4431C277.873 91.1336 277.255 89.8608 276.618 88.588H270.484V124.804H285.992C285.984 114.548 283.42 104.072 279.382 94.5252L279.374 94.5383ZM270.484 125.935V161.815C274.853 157.578 278.544 152.73 281.202 147.188C284.398 140.515 285.86 133.289 285.979 125.93L270.484 125.935ZM270.484 78.0281V87.4566H276.043C274.362 84.2109 272.508 81.0592 270.492 78.015L270.484 78.0281ZM217.168 35.4431C216.759 35.286 216.351 35.1262 215.939 34.9717C211.599 33.3498 207.164 32.0011 202.659 30.9332L187.55 47.7132L187.26 48.0248L187.454 48.2396H241.23C233.741 43.0226 225.666 38.7228 217.176 35.43L217.168 35.4431ZM242.807 49.3684H186.703L185.601 50.3898V87.4539H195.265H195.28H264.226V69.5006C257.989 61.8678 250.791 55.095 242.814 49.3553L242.807 49.3684Z" fill="#4686FF"/>
<path opacity="0.1" d="M29.849 68.5734V87.4538H3.66481C3.66481 87.3438 3.68293 87.2312 3.69069 87.1212C3.71398 86.82 3.73728 86.5188 3.76316 86.2203C3.79163 85.8693 3.82269 85.5157 3.85633 85.1727C3.88998 84.8296 3.92621 84.4105 3.96503 84.0308C4.00386 83.651 4.04009 83.266 4.08409 82.8863C4.12809 82.5065 4.16691 82.1268 4.2135 81.7496C4.26008 81.3725 4.30149 80.9901 4.35067 80.613C4.38949 80.2987 4.4309 79.987 4.47231 79.6727C4.53184 79.2301 4.59395 78.7849 4.66124 78.3449C4.66124 78.2794 4.67936 78.2113 4.68971 78.1485C5.1621 74.9275 5.80575 71.7347 6.61788 68.5839L29.849 68.5734Z" fill="#4686FF"/>
<path opacity="0.1" d="M3.58199 88.5747H29.849V124.803H5.50498C5.44027 125.175 5.37816 125.55 5.31087 125.924H29.849V155.142C29.805 155.129 29.7662 155.113 29.7248 155.097C29.0312 154.82 28.3427 154.527 27.6543 154.212L27.2143 154.011C26.5241 153.681 25.834 153.331 25.1438 152.963C24.9031 152.835 24.6624 152.701 24.4243 152.565C20.5928 150.393 17.112 147.641 14.1028 144.404C14.0148 144.318 13.932 144.226 13.844 144.142C13.4247 143.681 13.0132 143.215 12.6146 142.738L12.1746 142.215C11.7036 141.631 11.2481 141.031 10.8055 140.423C10.7408 140.334 10.6787 140.245 10.6114 140.161C8.81145 137.636 7.31694 134.901 6.15978 132.016C6.12354 131.93 6.09249 131.835 6.05884 131.754C5.7034 130.829 5.38851 129.895 5.11417 128.952C4.99511 128.556 4.88124 128.166 4.78289 127.755C4.74665 127.635 4.71559 127.517 4.68712 127.399C3.21706 121.593 3.04366 115.561 3.04366 109.571C3.04366 108.872 3.04366 108.17 3.04366 107.476C3.04366 105.054 3.07213 102.615 3.11354 100.18C3.11354 99.5484 3.13942 98.9198 3.15236 98.286C3.18859 96.678 3.24035 95.0699 3.30765 93.4618C3.32317 93.014 3.34388 92.5687 3.36717 92.1235C3.36717 91.8668 3.38011 91.6102 3.406 91.3535C3.46811 90.4211 3.51987 89.4966 3.58199 88.5747Z" fill="#4686FF"/>
<path opacity="0.1" d="M55.8702 54.8105V87.4538H36.1201V54.8105H38.936V43.7583H50.4946V54.8105H55.8702Z" fill="#4686FF"/>
<path opacity="0.1" d="M55.8702 88.5721H36.1227V124.801H55.8702V88.5721Z" fill="#4686FF"/>
<path opacity="0.1" d="M36.1201 125.924H55.8702V156.043C53.5405 156.72 51.1665 157.231 48.7658 157.57L48.1757 157.643C47.8858 157.677 47.5985 157.706 47.3138 157.735C47.0291 157.764 46.7341 157.785 46.4468 157.803H46.3562C46.232 157.803 46.0974 157.819 45.9757 157.821H45.8438C45.6885 157.821 45.5332 157.837 45.3779 157.842C45.1579 157.855 44.9379 157.858 44.7127 157.861C44.617 157.861 44.5264 157.861 44.4306 157.861C44.208 157.861 43.9881 157.861 43.7655 157.861H43.2763C43.1443 157.861 43.0175 157.861 42.8803 157.861L42.3808 157.842C42.122 157.842 41.8425 157.813 41.5733 157.795L41.0764 157.758L40.4578 157.701C40.023 157.661 39.5908 157.612 39.1638 157.551L38.6461 157.478L38.3873 157.441C37.9551 157.373 37.5281 157.3 37.0932 157.216C36.7749 157.161 36.4592 157.093 36.1382 157.028L36.1201 125.924Z" fill="#4686FF"/>
<path opacity="0.1" d="M179.327 50.9554H163.043V87.4512H179.327V50.9554Z" fill="#4686FF"/>
<path opacity="0.1" d="M179.33 88.5721V124.803H98.4995V109.176H141.553V118.395H163.043V88.5721H179.33Z" fill="#4686FF"/>
<path opacity="0.1" d="M179.586 164.769H179.327V188.537C176.411 188.287 173.504 187.948 170.605 187.518C157.555 185.585 144.833 181.828 132.803 176.356C129.329 174.774 125.927 173.047 122.595 171.176C117.03 168.055 111.698 164.527 106.642 160.618C105.372 159.634 104.118 158.626 102.881 157.596C102.025 156.881 101.173 156.148 100.311 155.435C99.7133 154.946 99.1103 154.464 98.4995 154.003V125.924H162.828C162.784 125.757 162.74 125.589 162.693 125.424C162.742 125.589 162.789 125.757 162.833 125.924H179.327V164.754C179.415 164.756 179.501 164.764 179.586 164.769Z" fill="#4686FF"/>
<path opacity="0.1" d="M221.799 48.2368H211.187V44.9002H215.944V34.9611C216.357 35.113 216.767 35.2693 217.176 35.4299V44.9002H221.799V48.2368Z" fill="#4686FF"/>
<path opacity="0.1" d="M247.364 87.4538H195.27C195.27 87.4538 195.27 87.4538 195.288 87.4669L195.265 87.4538H185.601V50.958H188.339V77.9337H200.853V61.9578H211.19V49.3578H221.801V61.9683H232.138V77.9442H247.364V87.4538Z" fill="#4686FF"/>
<path opacity="0.1" d="M185.601 88.5721V124.803H247.364V88.5721H185.601ZM264.13 167.451L264.216 138.773H247.364V125.94H185.601V188.927C190.665 189.142 195.736 189.081 200.793 188.744H200.881C203.297 188.59 205.701 188.367 208.094 188.073H208.149C220.916 186.57 233.4 183.199 245.211 178.066" fill="#4686FF"/>
<path opacity="0.1" d="M271.581 125.924H285.99C285.863 133.281 284.403 140.507 281.209 147.18C278.551 152.725 274.858 157.572 270.494 161.807V138.76H271.581V125.924Z" fill="#4686FF"/>
<path opacity="0.1" d="M285.997 124.803H271.581V94.5251H279.382C283.42 104.071 285.984 114.547 285.997 124.803Z" fill="#4686FF"/>
<path opacity="0.1" d="M179.33 61.1014H170.605V72.5438H179.33V61.1014Z" fill="#4686FF"/>
<path opacity="0.1" d="M179.33 84.8191H170.605V87.4538H179.33V84.8191Z" fill="#4686FF"/>
<path opacity="0.1" d="M179.33 88.5721H170.605V96.2589H179.33V88.5721Z" fill="#4686FF"/>
<path opacity="0.1" d="M179.33 108.537H170.605V119.979H179.33V108.537Z" fill="#4686FF"/>
<path opacity="0.1" d="M179.33 132.255H170.605V143.697H179.33V132.255Z" fill="#4686FF"/>
<path opacity="0.1" d="M179.327 164.754C179.415 164.754 179.501 164.754 179.586 164.769H179.327V167.428H170.605V155.972H179.327V164.754Z" fill="#4686FF"/>
<path opacity="0.1" d="M179.327 179.685V188.524C176.411 188.274 173.504 187.935 170.605 187.505V179.685H179.327Z" fill="#4686FF"/>
<path opacity="0.1" d="M135.89 123.963H98.4995V124.803H135.89V123.963Z" fill="#4686FF"/>
<path opacity="0.1" d="M135.89 125.922H98.4995V129.143H135.89V125.922Z" fill="#4686FF"/>
<path opacity="0.1" d="M135.89 139.703H98.4995V144.883H135.89V139.703Z" fill="#4686FF"/>
<path opacity="0.1" d="M135.888 155.443V160.624H106.642C105.372 159.642 104.117 158.635 102.879 157.601C102.022 156.886 101.173 156.153 100.309 155.443H135.888Z" fill="#4686FF"/>
<path opacity="0.1" d="M135.888 171.181V176.356H132.8C129.33 174.772 125.929 173.045 122.595 171.173L135.888 171.181Z" fill="#4686FF"/>
<path opacity="0.1" d="M208.156 92.0842H200.796V99.5327H208.156V92.0842Z" fill="#4686FF"/>
<path opacity="0.1" d="M48.7839 57.3798H41.4232V64.8282H48.7839V57.3798Z" fill="#4686FF"/>
<path opacity="0.1" d="M48.7839 74.6809H41.4232V82.1294H48.7839V74.6809Z" fill="#4686FF"/>
<path opacity="0.1" d="M48.7839 91.9821H41.4232V99.4305H48.7839V91.9821Z" fill="#4686FF"/>
<path opacity="0.1" d="M48.7839 109.281H41.4232V116.729H48.7839V109.281Z" fill="#4686FF"/>
<path opacity="0.1" d="M48.7839 126.582H41.4232V134.03H48.7839V126.582Z" fill="#4686FF"/>
<path opacity="0.1" d="M48.7839 143.883H41.4232V151.331H48.7839V143.883Z" fill="#4686FF"/>
<path opacity="0.1" d="M236.256 92.0842H228.895V99.5327H236.256V92.0842Z" fill="#4686FF"/>
<path opacity="0.1" d="M208.156 110.457H200.796V117.905H208.156V110.457Z" fill="#4686FF"/>
<path opacity="0.1" d="M236.256 110.457H228.895V117.905H236.256V110.457Z" fill="#4686FF"/>
<path opacity="0.1" d="M208.156 128.826H200.796V136.275H208.156V128.826Z" fill="#4686FF"/>
<path opacity="0.1" d="M236.256 128.826H228.895V136.275H236.256V128.826Z" fill="#4686FF"/>
<path opacity="0.1" d="M208.156 147.199H200.796V154.647H208.156V147.199Z" fill="#4686FF"/>
<path opacity="0.1" d="M236.256 147.199H228.895V154.647H236.256V147.199Z" fill="#4686FF"/>
<path opacity="0.1" d="M208.156 165.571H200.796V173.019H208.156V165.571Z" fill="#4686FF"/>
<path opacity="0.1" d="M236.256 165.571H228.895V173.019H236.256V165.571Z" fill="#4686FF"/>
<path opacity="0.1" d="M200.796 188.744V183.941H208.154V188.06L200.796 188.744Z" fill="#4686FF"/>
<path opacity="0.1" d="M4.65865 78.1433V82.4044H29.849V78.1433H4.65865ZM7.16915 82.1372H5.11417V78.4052H7.18468L7.16915 82.1372ZM9.67706 82.1372H7.60655V78.4052H9.67706V82.1372ZM12.1798 82.1372H10.1093V78.4052H12.1798V82.1372ZM14.6877 82.1372H12.6198V78.4052H14.6903L14.6877 82.1372ZM17.193 82.1372H15.1225V78.4052H17.193V82.1372ZM19.7009 82.1372H17.6304V78.4052H19.7009V82.1372ZM22.2088 82.1372H20.1383V78.4052H22.2088V82.1372ZM24.7142 82.1372H22.6437V78.4052H24.7142V82.1372ZM27.2195 82.1372H25.149V78.4052H27.2195V82.1372ZM29.7248 82.1372H27.6543V78.4052H29.7248V82.1372Z" fill="#4686FF"/>
<path opacity="0.1" d="M4.65865 90.5416V94.8027H29.849V90.5416H4.65865ZM7.16915 94.533H5.11417V90.8114H7.18468L7.16915 94.533ZM9.67706 94.533H7.60655V90.8114H9.67706V94.533ZM12.1798 94.533H10.1093V90.8114H12.1798V94.533ZM14.6877 94.533H12.6198V90.8114H14.6903L14.6877 94.533ZM17.193 94.533H15.1225V90.8114H17.193V94.533ZM19.7009 94.533H17.6304V90.8114H19.7009V94.533ZM22.2088 94.533H20.1383V90.8114H22.2088V94.533ZM24.7142 94.533H22.6437V90.8114H24.7142V94.533ZM27.2195 94.533H25.149V90.8114H27.2195V94.533ZM29.7248 94.533H27.6543V90.8114H29.7248V94.533Z" fill="#4686FF"/>
<path opacity="0.1" d="M4.65865 102.945V107.214H29.849V102.945H4.65865ZM7.16915 106.937H5.11417V103.212H7.18468L7.16915 106.937ZM9.67706 106.937H7.60655V103.212H9.67706V106.937ZM12.1798 106.937H10.1093V103.212H12.1798V106.937ZM14.6877 106.937H12.6198V103.212H14.6903L14.6877 106.937ZM17.193 106.937H15.1225V103.212H17.193V106.937ZM19.7009 106.937H17.6304V103.212H19.7009V106.937ZM22.2088 106.937H20.1383V103.212H22.2088V106.937ZM24.7142 106.937H22.6437V103.212H24.7142V106.937ZM27.2195 106.937H25.149V103.212H27.2195V106.937ZM29.7248 106.937H27.6543V103.212H29.7248V106.937Z" fill="#4686FF"/>
<path opacity="0.1" d="M4.65865 115.349V119.605H29.849V115.349H4.65865ZM7.16915 119.34H5.11417V115.613H7.18468L7.16915 119.34ZM9.67706 119.34H7.60655V115.613H9.67706V119.34ZM12.1798 119.34H10.1093V115.613H12.1798V119.34ZM14.6877 119.34H12.6198V115.613H14.6903L14.6877 119.34ZM17.193 119.34H15.1225V115.613H17.193V119.34ZM19.7009 119.34H17.6304V115.613H19.7009V119.34ZM22.2088 119.34H20.1383V115.613H22.2088V119.34ZM24.7142 119.34H22.6437V115.613H24.7142V119.34ZM27.2195 119.34H25.149V115.613H27.2195V119.34ZM29.7248 119.34H27.6543V115.613H29.7248V119.34Z" fill="#4686FF"/>
<path opacity="0.1" d="M4.76736 127.75C4.86829 128.151 4.98217 128.551 5.10123 128.947V128.017H7.17174V131.741H6.06401C6.09766 131.828 6.13131 131.922 6.16495 132.003H29.849V127.75H4.76736ZM9.68483 131.741H7.61431V128.017H9.68483V131.741ZM12.1876 131.741H10.117V128.017H12.1876V131.741ZM14.6955 131.741H12.6198V128.017H14.6903L14.6955 131.741ZM17.2008 131.741H15.1303V128.017H17.2008V131.741ZM19.7087 131.741H17.6382V128.017H19.7087V131.741ZM22.2166 131.741H20.1461V128.017H22.2166V131.741ZM24.7219 131.741H22.6514V128.017H24.7219V131.741ZM27.2272 131.741H25.1567V128.017H27.2272V131.741ZM29.7326 131.741H27.6621V128.017H29.7326V131.741Z" fill="#4686FF"/>
<path opacity="0.1" d="M10.6166 140.153C10.6813 140.237 10.7434 140.332 10.8107 140.415H12.1798V142.204C12.3273 142.382 12.4723 142.56 12.6224 142.728V140.405H14.6929V144.142H13.8543C13.9371 144.229 14.0174 144.32 14.1131 144.404H29.8568V140.153H10.6166ZM17.193 144.142H15.1225V140.421H17.193V144.142ZM19.7009 144.142H17.6304V140.421H19.7009V144.142ZM22.2088 144.142H20.1383V140.421H22.2088V144.142ZM24.7142 144.142H22.6436V140.421H24.7142V144.142ZM27.2195 144.142H25.149V140.421H27.2195V144.142ZM29.7248 144.142H27.6543V140.421H29.7248V144.142Z" fill="#4686FF"/>
<path opacity="0.1" d="M24.4346 152.554C24.6702 152.691 24.9109 152.816 25.1541 152.953V152.822H27.2247V154L27.6646 154.207V152.822H29.7352V155.087C29.7749 155.107 29.8165 155.123 29.8594 155.134V152.554H24.4346Z" fill="#4686FF"/>
<path opacity="0.1" d="M195.27 87.4538H195.286H195.27ZM179.327 164.751H179.586H179.327ZM162.693 125.422C162.742 125.589 162.784 125.757 162.83 125.922C162.789 125.757 162.745 125.589 162.693 125.422ZM195.27 87.446H195.286H195.27ZM38.9464 48.229V49.3473H50.5076V48.229H38.9464ZM179.327 164.751H179.586H179.327ZM162.693 125.422C162.742 125.589 162.784 125.757 162.83 125.922C162.789 125.757 162.745 125.589 162.693 125.422ZM195.27 87.446H195.286H195.27ZM179.327 164.743H179.586H179.327ZM162.693 125.422C162.742 125.589 162.784 125.757 162.83 125.922C162.789 125.757 162.745 125.589 162.693 125.422Z" fill="#4686FF"/>
<path d="M119.469 99.4358C119.469 99.4358 118.449 99.2917 118.449 97.7884C118.449 96.2851 117.719 93.4775 117.719 93.4775C117.719 93.4644 117.088 88.5878 116.215 87.8126C115.343 87.0374 114.222 82.4856 114.222 82.4856C114.222 82.4856 114.031 80.0158 113.64 79.4842C113.249 78.9525 112.721 77.6509 111.942 75.794C111.163 73.9371 107.915 72.6512 107.915 72.6512C107.915 72.6512 102.043 69.2046 100.378 68.081C100.227 67.9887 100.086 67.8808 99.9566 67.7589C99.6667 67.3739 98.4037 67.366 98.4037 67.366C98.2717 66.5227 98.1449 65.5537 98.1035 64.6763C98.1035 64.582 98.1035 64.4878 98.0906 64.3935C99.9462 63.2835 101.344 61.5334 102.027 59.4645C102.058 59.365 102.084 59.2602 102.113 59.1607C102.224 59.1236 102.326 59.0635 102.413 58.9841C102.5 58.9048 102.569 58.8079 102.617 58.6998C102.767 58.3619 102.77 57.9664 102.956 57.6522C103.174 57.2803 103.588 57.0812 103.914 56.801C104.737 56.0939 104.949 54.9022 104.91 53.8179C104.884 52.9406 104.745 52.0553 104.799 51.1832L104.815 50.9632C104.83 50.8323 104.848 50.7013 104.871 50.5756C104.998 49.9261 105.275 49.3132 105.431 48.669C105.586 48.0247 105.601 47.2992 105.239 46.744C104.708 45.9295 103.603 45.7671 102.633 45.6833C101.533 45.589 100.549 45.7121 99.8453 44.7876C99.5159 44.3044 99.1452 43.8513 98.7376 43.4336C98.5927 43.2974 97.1847 42.4279 97.1847 42.3703C95.8106 41.7262 94.253 41.6053 92.7978 42.0298C92.068 42.2446 91.3795 42.5955 90.6393 42.771C89.0424 43.1533 87.2048 42.7395 85.8487 43.6641C85.0929 44.1879 84.64 45.0207 84.2155 45.8326C83.8705 46.5013 83.5202 47.1692 83.1648 47.8361C82.5928 48.9335 82.0104 50.0492 81.7697 51.2644C81.7191 51.5288 81.688 51.7967 81.6766 52.0658V52.0789C81.6766 52.1758 81.6766 52.2727 81.6766 52.3696V52.4927C81.6766 52.5844 81.6766 52.6734 81.6921 52.7546C81.7076 52.8358 81.705 52.862 81.7128 52.917C81.7206 52.972 81.7335 53.0951 81.749 53.1789C81.7646 53.2627 81.7956 53.4094 81.8267 53.5246C81.8396 53.5744 81.8577 53.6215 81.8733 53.6686C81.8991 53.7577 81.9302 53.8441 81.9639 53.9305C81.982 53.9751 82.0001 54.0222 82.0208 54.0667C82.0596 54.1584 82.1062 54.2475 82.1528 54.3286C82.1735 54.3653 82.189 54.3994 82.2097 54.4334C82.2819 54.5552 82.3615 54.6724 82.4478 54.7843C83.0017 55.4836 83.817 55.9288 84.42 56.5836C84.42 56.6098 84.42 56.636 84.42 56.6596C84.42 56.7329 84.42 56.8036 84.42 56.8769C84.452 58.3372 84.8361 59.7674 85.5388 61.0431C86.2416 62.3189 87.2418 63.4016 88.4523 64.1971C88.4523 64.2966 88.4653 64.3987 88.4704 64.4982C88.5209 65.2756 88.5114 66.0559 88.442 66.8318C88.3366 66.7062 88.2047 66.6061 88.0559 66.539C87.9072 66.4719 87.7455 66.4395 87.5827 66.4442C87.4715 66.4387 87.3601 66.4484 87.2514 66.473L87.2281 66.4546V66.4782C86.6587 66.6196 85.9574 67.2194 85.287 68.9244C85.287 68.9244 83.2476 71.25 81.6947 71.1531C80.1418 71.0562 76.2104 73.5731 76.2104 73.5731C76.2104 73.5731 72.3748 76.0926 71.5518 78.6592C71.0917 80.1146 70.5402 81.5388 69.9005 82.9229L65.159 92.8097L64.2843 100.654C64.2843 100.654 64.7682 104.142 64.6725 104.674C64.5767 105.205 66.6628 110.001 66.6628 110.001C66.6628 110.001 73.555 122.255 76.3709 122.884L76.5728 122.74C76.6932 122.803 76.821 122.852 76.9532 122.884L77.533 122.47C77.5678 122.931 77.553 123.395 77.489 123.853C77.1007 125.063 77.6339 132.959 78.312 134.507C78.9901 136.055 78.7494 156.349 78.7494 156.349L78.6536 158.141C78.6536 158.141 78.6536 158.198 78.6769 158.298L78.6536 158.722L78.7235 158.759C78.7961 159.327 78.7724 159.904 78.6536 160.464C78.4103 161.25 78.312 163.47 78.312 163.47C78.312 163.47 76.3735 176.01 77.2923 178.53C78.211 181.049 78.9927 183.81 78.9927 183.81C78.9927 183.81 79.9632 186.952 79.0393 187.489C78.1153 188.026 75.4883 188.927 76.0292 190.237C76.521 191.447 78.387 194.689 78.664 195.163L78.6407 195.412L78.2602 199.584C78.3218 200.135 78.4695 200.672 78.6976 201.176C79.1143 202.085 79.9244 203.028 81.4643 202.926C81.7232 202.907 82.0234 202.876 82.3133 202.837C85.1317 202.454 88.6024 201.181 88.6024 201.181C88.4222 201.066 88.2571 200.928 88.1107 200.77C87.9722 200.635 87.8624 200.472 87.7881 200.291C87.7138 200.111 87.6765 199.918 87.6785 199.723C87.7199 198.963 86.3145 195.344 85.9651 194.453C85.9108 194.325 85.8823 194.252 85.8823 194.252C85.8823 194.252 89.0864 190.863 88.5533 187.859C88.5533 187.859 85.0075 185.763 86.1748 184.614C87.342 183.464 89.428 180.161 89.428 180.161C89.428 180.161 89.5238 167.813 89.428 165.969C89.3282 164.689 89.3882 163.402 89.6066 162.137C89.6455 161.946 89.692 161.76 89.7412 161.577C91.3555 161.821 92.9851 161.946 94.6173 161.951C95.2126 161.951 95.8182 161.951 96.429 161.915C96.429 162.089 96.4367 162.278 96.4523 162.48C96.5869 165.539 96.8379 170.903 97.0424 172.896C97.3322 175.754 98.9343 183.453 98.9343 183.453C98.9343 183.453 95.8777 185.439 99.4675 190.331C99.4675 190.331 99.4675 192.104 99.2293 192.361C98.9751 193.2 98.7703 194.053 98.616 194.917C98.4658 195.839 98.4037 196.771 98.647 197.256C99.2293 198.413 102.723 198.319 102.723 198.319L102.809 198.303C103.468 198.234 104.135 198.298 104.77 198.492C105.405 198.686 105.995 199.005 106.507 199.432C107.835 200.511 112.874 200.037 115.602 199.694C116.671 199.558 117.385 199.432 117.385 199.432C117.42 199.31 117.432 199.182 117.421 199.055C117.393 198.377 116.868 196.889 113.306 195.561C113.306 195.561 109.957 193.283 110.004 191.297H109.934H109.546C109.828 191.282 110.009 191.297 110.009 191.297C110.009 191.297 108.697 186.452 109.233 186.059C109.768 185.667 108.164 180.298 108.164 180.298C108.164 180.298 107.245 171.288 107.196 170.657C107.198 170.115 107.279 169.577 107.436 169.059L107.196 164.12C107.196 164.12 107.149 162.478 107.196 161.944C107.188 161.48 107.151 161.017 107.084 160.558C107.061 160.375 107.038 160.184 107.012 159.995C108.267 159.673 109.082 159.374 109.082 159.374L108.937 142.181C110.004 140.085 110.2 135.489 110.195 132.228C110.195 130.133 110.102 128.583 110.102 128.583L111.559 126.176C111.559 126.176 111.896 123.295 111.363 122.664C111.127 122.378 111.233 122.082 111.427 121.839C111.528 121.758 111.634 121.684 111.746 121.619C111.746 121.619 111.73 121.595 111.712 121.561C111.814 121.475 111.922 121.397 112.035 121.328C112.035 121.328 111.518 120.516 111.981 120.173C112.416 120.472 112.804 120.697 113.099 120.88C113.078 121.071 113.058 121.181 113.058 121.181L113.182 120.919C113.467 121.082 113.64 121.181 113.64 121.181C113.64 121.181 115.923 116.58 115.874 115.901C115.825 115.223 117.427 112.366 117.427 112.366C117.427 112.366 117.621 110.865 118.495 110.237C119.37 109.608 119.174 105.054 119.174 105.054C119.174 105.054 119.417 102.681 119.999 101.712C120.582 100.743 119.469 99.4358 119.469 99.4358ZM75.7911 97.4165L75.8351 98.5139C75.5763 98.0922 75.39 97.7884 75.39 97.7884L75.7911 97.4165Z" fill="url(#paint0_linear_2_18)"/>
<path d="M113.764 119.194L113.205 121.603C113.205 121.603 108.728 119.29 107.92 116.352C107.113 113.413 109.271 112.298 109.271 112.298L113.443 114.086L113.764 119.194Z" fill="white"/>
<path opacity="0.1" d="M113.764 119.194L113.205 121.603C113.205 121.603 108.728 119.29 107.92 116.352C107.113 113.413 109.271 112.298 109.271 112.298L113.443 114.086L113.764 119.194Z" fill="black"/>
<path d="M88.6361 201.197C88.6361 201.197 84.4951 202.737 81.6481 202.931C80.1366 203.033 79.3421 202.096 78.9331 201.192C78.7097 200.69 78.5656 200.155 78.5061 199.607L78.8762 195.456L79.0729 193.246L85.1214 191.656L85.9781 194.307L86.0583 194.508C86.4025 195.393 87.782 198.995 87.7406 199.746C87.7389 199.939 87.7756 200.13 87.8485 200.307C87.9215 200.485 88.0291 200.646 88.165 200.781C88.3039 200.939 88.4622 201.079 88.6361 201.197Z" fill="white"/>
<path d="M116.922 199.086C116.932 199.212 116.92 199.339 116.886 199.461C116.886 199.461 108.029 200.956 106.217 199.461C105.707 199.024 105.111 198.7 104.469 198.51C103.827 198.319 103.153 198.267 102.49 198.356C102.49 198.356 99.0637 198.45 98.4917 197.308C98.2536 196.829 98.3157 195.899 98.4633 194.982C98.6138 194.123 98.8143 193.274 99.0637 192.439L99.2009 192.329L100.016 191.667L109.561 191.381H109.634C109.587 193.356 112.874 195.621 112.874 195.621C116.365 196.931 116.88 198.411 116.922 199.086Z" fill="white"/>
<path opacity="0.1" d="M116.922 199.086C116.931 199.212 116.918 199.339 116.883 199.461C116.883 199.461 108.029 200.956 106.217 199.461C105.707 199.024 105.112 198.7 104.471 198.51C103.829 198.32 103.156 198.267 102.493 198.356C102.493 198.356 99.0637 198.45 98.4943 197.308C98.2562 196.826 98.3157 195.899 98.4633 194.982C99.7832 195.116 101.867 195.448 102.685 196.242C103.922 197.449 106.018 198.654 107.304 198.748C108.311 198.814 114.334 199.008 116.922 199.086Z" fill="black"/>
<path opacity="0.1" d="M88.6361 201.197C88.6361 201.197 84.4951 202.737 81.6481 202.931C80.1366 203.033 79.3421 202.096 78.9357 201.189C79.9891 201.548 81.4514 201.925 82.2201 201.58C83.1311 201.171 86.3611 200.907 88.1728 200.794C88.3107 200.947 88.4662 201.082 88.6361 201.197Z" fill="black"/>
<path d="M94.7803 77.0957C91.364 75.7521 86.9693 71.3129 88.0667 69.2386C88.3104 68.7152 88.4553 68.1503 88.4937 67.573C88.5643 66.7892 88.5747 66.0012 88.5248 65.2158C88.4479 63.9297 88.2949 62.6493 88.0667 61.3816C88.0667 61.3816 98.7324 61.6252 98.1113 63.2149C97.9301 63.6811 97.9016 64.4904 97.9508 65.3966C98 66.3027 98.1294 67.3268 98.264 68.1937C98.4503 69.3827 98.6367 70.2889 98.6367 70.2889C98.6367 70.2889 97.9845 71.2134 97.6014 71.2631C97.2184 71.3129 99.6823 79.0101 94.7803 77.0957Z" fill="#CF6F80"/>
<path opacity="0.1" d="M86.0505 194.508L85.9703 194.597C82.7817 190.695 78.9254 195.558 78.9254 195.558L78.8684 195.456L79.0651 193.246L85.1136 191.656L85.9703 194.307L86.0505 194.508Z" fill="black"/>
<path opacity="0.1" d="M109.636 191.656C109.636 191.656 107.307 191.606 106.065 192.717C104.822 193.827 98.8178 192.958 99.0767 192.717C99.1533 192.597 99.1996 192.461 99.2112 192.319L100.027 191.656L109.572 191.371C109.608 191.546 109.636 191.656 109.636 191.656Z" fill="black"/>
<path d="M90.0181 161.011C89.8447 161.445 89.7129 161.895 89.6248 162.355C89.4089 163.613 89.3489 164.894 89.4462 166.168C89.5419 168.001 89.4462 180.287 89.4462 180.287C89.4462 180.287 87.3989 183.563 86.2576 184.718C85.1162 185.873 88.5869 187.948 88.5869 187.948C89.1045 190.933 85.9677 194.307 85.9677 194.307C82.7791 190.404 78.9228 195.27 78.9228 195.27C78.9228 195.27 76.8264 191.604 76.3036 190.294C75.7808 188.985 78.3508 188.079 79.2541 187.547C80.1573 187.015 79.2101 183.88 79.2101 183.88C79.2101 183.88 78.4466 181.133 77.5407 178.627C76.6349 176.12 78.5397 163.643 78.5397 163.643C78.5397 163.643 78.6381 161.428 78.8736 160.655C78.9924 160.097 79.0161 159.523 78.9435 158.958C78.928 158.767 78.9098 158.607 78.8969 158.5C78.884 158.392 78.8736 158.342 78.8736 158.342L78.9098 158.28L80.2039 155.839C80.2039 155.839 90.6393 159.474 90.0181 161.011Z" fill="#4686FF"/>
<path d="M109.636 191.368C109.636 191.368 107.307 191.318 106.065 192.416C104.822 193.513 98.8178 192.657 99.0766 192.416C99.3355 192.175 99.3148 190.391 99.3148 190.391C95.7923 185.525 98.7971 183.55 98.7971 183.55C98.7971 183.55 97.2235 175.89 96.9388 173.048C96.7396 171.063 96.4937 165.728 96.3617 162.682C96.3047 161.373 96.2711 160.472 96.2711 160.472L99.1491 159.885L99.5192 159.809L106.461 158.4C106.461 158.4 106.652 159.71 106.782 160.781C106.846 161.238 106.882 161.699 106.89 162.161C106.844 162.685 106.89 164.324 106.89 164.324L107.126 169.24C106.972 169.756 106.893 170.291 106.89 170.83C106.937 171.456 107.84 180.418 107.84 180.418C107.84 180.418 109.411 185.766 108.875 186.151C108.34 186.536 109.636 191.368 109.636 191.368Z" fill="#4686FF"/>
<path opacity="0.1" d="M98.1113 63.2149C97.9301 63.6811 97.9016 64.4904 97.9508 65.3966C96.5222 66.2671 94.8798 66.7122 93.2125 66.6807C91.5451 66.6492 89.9203 66.1424 88.5248 65.2185C88.448 63.9314 88.295 62.6502 88.0667 61.3816C88.0667 61.3816 98.7324 61.62 98.1113 63.2149Z" fill="black"/>
<path d="M102.234 57.4269C102.236 58.3707 102.089 59.3087 101.799 60.2057C101.151 62.2154 99.8213 63.9285 98.0454 65.0421C96.2696 66.1558 94.1618 66.5983 92.0947 66.2914C90.0276 65.9846 88.1343 64.9482 86.7493 63.3653C85.3643 61.7825 84.5768 59.7552 84.5261 57.6417C84.5261 57.5684 84.5261 57.5003 84.5261 57.4269C84.506 56.2373 84.7202 55.0555 85.1562 53.9505C85.5922 52.8455 86.2413 51.8394 87.0656 50.9909C87.8899 50.1424 88.8728 49.4685 89.9572 49.0084C91.0416 48.5484 92.2056 48.3115 93.3814 48.3115C94.5573 48.3115 95.7213 48.5484 96.8057 49.0084C97.89 49.4685 98.873 50.1424 99.6973 50.9909C100.522 51.8394 101.171 52.8455 101.607 53.9505C102.043 55.0555 102.257 56.2373 102.237 57.4269H102.234Z" fill="#CF6F80"/>
<path opacity="0.1" d="M94.7803 77.0956C91.364 75.7521 86.9693 71.3129 88.0667 69.2386C88.3104 68.7152 88.4553 68.1503 88.4937 67.573L93.1705 71.4622L96.0641 73.8638L98.264 68.1963C98.4503 69.3853 98.6367 70.2915 98.6367 70.2915C98.6367 70.2915 97.9845 71.216 97.6014 71.2657C97.2184 71.3155 99.6823 79.0101 94.7803 77.0956Z" fill="black"/>
<path d="M106.875 94.2842L102.969 160.676L97.8757 161.014L84.6866 122.517L86.8503 76.8128L87.3058 67.1565L93.1705 72.0305L96.0666 74.4321L98.3313 68.5996L102.542 72.3133L106.875 94.2842Z" fill="#4686FF"/>
<path opacity="0.1" d="M90.0181 161.011C89.8447 161.445 89.7129 161.895 89.6247 162.355C85.9185 161.776 82.3189 160.638 78.9461 158.979L78.8762 158.942L78.8995 158.521L78.9124 158.301L80.2065 155.86C80.2065 155.86 90.6393 159.474 90.0181 161.011Z" fill="black"/>
<path opacity="0.1" d="M99.2086 162.365C98.2612 162.528 97.3056 162.638 96.3461 162.695C96.2892 161.386 96.2556 160.485 96.2556 160.485L99.1336 159.898L99.2086 162.365Z" fill="black"/>
<path opacity="0.1" d="M106.766 160.794C104.926 161.278 102.084 161.823 99.5399 161.483L99.5037 159.822L106.445 158.413C106.445 158.413 106.637 159.71 106.766 160.794Z" fill="black"/>
<path opacity="0.1" d="M99.4933 161.786C88.882 163.62 79.1635 158.363 79.1635 158.363L79.2567 156.582C79.2567 156.582 79.4974 136.393 78.8296 134.845C78.1619 133.297 77.6417 125.448 78.0195 124.243C78.3974 123.038 76.64 104.972 76.64 104.972L76.3554 97.6391L65.9355 93.3675L70.5941 83.541C71.2234 82.1633 71.7646 80.7461 72.2143 79.2982C73.0244 76.7473 76.785 74.2409 76.785 74.2409C76.785 74.2409 80.6413 71.7372 82.1657 71.8314C83.6901 71.9257 85.6882 69.6158 85.6882 69.6158C87.1634 65.8104 88.4989 67.5337 88.4989 67.5337C88.4989 67.7144 88.4989 67.5337 88.4264 68.0967C87.9088 72.2741 96.7965 85.4738 96.9233 85.7069L97.7696 106.57L98.6263 132.972L99.4933 161.786Z" fill="black"/>
<path d="M99.2086 161.786C88.5973 163.62 78.8762 158.363 78.8762 158.363L78.972 156.582C78.972 156.582 79.2127 136.393 78.5423 134.845C77.872 133.297 77.3544 125.448 77.7348 124.243C78.1153 123.038 76.3553 104.972 76.3553 104.972L76.0681 97.6391L65.643 93.3518L70.3017 83.5253C70.9295 82.147 71.4707 80.7299 71.9219 79.2825C72.7294 76.7316 76.4925 74.2252 76.4925 74.2252C76.4925 74.2252 80.3489 71.7215 81.8707 71.8157C83.3925 71.91 85.3931 69.6001 85.3931 69.6001C86.871 65.7946 88.4989 67.5179 88.4989 67.5179C88.4989 67.6987 88.3436 67.7798 88.4264 68.081C89.5652 72.1326 96.5118 85.4581 96.6386 85.6912L97.4953 106.554L98.352 132.956L99.2086 161.786Z" fill="white"/>
<path opacity="0.1" d="M96.3487 86.2857C95.2074 85.8038 89.1615 78.819 89.1615 78.819V77.2292C88.9415 76.7054 87.6345 77.0249 86.5733 77.3916L87.0288 67.7353L87.5465 68.1701C88.6801 72.2191 96.2167 86.0526 96.3487 86.2857Z" fill="black"/>
<path d="M96.636 85.7069C95.4921 85.225 89.4462 78.2402 89.4462 78.2402V76.6504C89.2262 76.1266 87.9192 76.4461 86.858 76.8128L87.3161 67.1565L87.8338 67.5913C88.97 71.6403 96.5092 85.4765 96.636 85.7069Z" fill="white"/>
<path opacity="0.1" d="M79.1635 120.542C79.3058 120.542 86.5423 119.772 86.5423 119.772C86.5423 119.772 90.924 128.491 90.6367 130.612C90.3494 132.734 89.8292 134.612 88.0667 134.279C86.3042 133.946 78.5811 134.541 78.5811 134.541L79.1635 120.542Z" fill="black"/>
<path d="M78.8762 119.964C79.0185 119.964 86.255 119.194 86.255 119.194C86.255 119.194 90.6341 127.915 90.3494 130.034C90.0647 132.152 89.5393 134.033 87.7794 133.7C86.0195 133.368 78.2939 133.962 78.2939 133.962L78.8762 119.964Z" fill="white"/>
<path d="M84.3294 115.87C84.3294 115.87 90.9706 119.482 91.1129 120.584C91.2553 121.687 87.7328 120.102 86.9719 119.911C86.4711 119.789 85.9613 119.708 85.4475 119.67L80.3721 119.809L84.3294 115.87Z" fill="#CF6F80"/>
<path opacity="0.1" d="M94.4956 86.7362C94.8816 86.7362 95.1944 86.4196 95.1944 86.0291C95.1944 85.6385 94.8816 85.3219 94.4956 85.3219C94.1097 85.3219 93.7968 85.6385 93.7968 86.0291C93.7968 86.4196 94.1097 86.7362 94.4956 86.7362Z" fill="black"/>
<path d="M94.4956 86.4481C94.8816 86.4481 95.1944 86.1315 95.1944 85.741C95.1944 85.3505 94.8816 85.0339 94.4956 85.0339C94.1097 85.0339 93.7968 85.3505 93.7968 85.741C93.7968 86.1315 94.1097 86.4481 94.4956 86.4481Z" fill="#3F3D56"/>
<path opacity="0.1" d="M95.7819 117.347C96.1679 117.347 96.4807 117.031 96.4807 116.64C96.4807 116.249 96.1679 115.933 95.7819 115.933C95.396 115.933 95.0831 116.249 95.0831 116.64C95.0831 117.031 95.396 117.347 95.7819 117.347Z" fill="black"/>
<path d="M95.7819 117.056C96.1679 117.056 96.4807 116.74 96.4807 116.349C96.4807 115.959 96.1679 115.642 95.7819 115.642C95.396 115.642 95.0831 115.959 95.0831 116.349C95.0831 116.74 95.396 117.056 95.7819 117.056Z" fill="#3F3D56"/>
<path opacity="0.1" d="M95.1918 102.042C95.5778 102.042 95.8906 101.725 95.8906 101.335C95.8906 100.944 95.5778 100.627 95.1918 100.627C94.8059 100.627 94.493 100.944 94.493 101.335C94.493 101.725 94.8059 102.042 95.1918 102.042Z" fill="black"/>
<path d="M95.1918 101.754C95.5778 101.754 95.8906 101.437 95.8906 101.046C95.8906 100.656 95.5778 100.339 95.1918 100.339C94.8059 100.339 94.493 100.656 94.493 101.046C94.493 101.437 94.8059 101.754 95.1918 101.754Z" fill="#3F3D56"/>
<path d="M111.3 119.524C111.3 119.524 111.777 120.246 111.3 120.584C110.824 120.922 111.347 121.739 111.347 121.739C111.347 121.739 110.159 122.444 110.682 123.078C111.205 123.711 110.873 126.574 110.873 126.574L109.445 128.968C109.445 128.968 109.53 130.51 109.535 132.595C109.535 135.848 109.346 140.421 108.301 142.505L108.446 159.61C108.446 159.61 103.443 161.459 99.2552 160.896L98.6341 133.449C98.6341 133.449 99.5399 117.884 99.8738 114.898C100.069 113.348 100.149 111.786 100.112 110.223C100.112 110.223 99.9695 105.551 99.4907 103.383C99.4907 103.383 98.9731 93.9882 98.9214 91.3876C98.8981 90.1435 98.9628 86.5136 99.0352 83.0618C99.1155 79.2878 99.206 75.7285 99.206 75.7285L98.2614 68.1648C98.2614 68.1648 99.206 68.0679 99.4907 68.4529C99.6183 68.5735 99.7569 68.6814 99.9048 68.7751C101.535 69.8908 107.297 73.3217 107.297 73.3217C107.297 73.3217 110.485 74.605 111.249 76.4435C112.012 78.2821 112.543 79.5863 112.913 80.1101C113.283 80.6339 113.485 83.0958 113.485 83.0958C113.485 83.0958 114.582 87.6267 115.439 88.394C116.296 89.1614 116.922 94.0432 116.922 94.0432L109.352 100.067C109.352 100.067 108.686 110.087 108.544 110.475C108.402 110.862 111.3 119.524 111.3 119.524Z" fill="white"/>
<path d="M111.588 119.524C111.588 119.524 112.061 120.246 111.588 120.584C111.114 120.922 111.632 121.739 111.632 121.739C111.632 121.739 110.452 122.452 110.969 123.085C111.487 123.719 111.161 126.582 111.161 126.582L109.732 128.976C109.732 128.976 109.817 130.518 109.825 132.603C109.825 135.856 109.636 140.428 108.591 142.513L108.733 159.618C108.733 159.618 103.722 161.467 99.5399 160.904L98.9214 133.457C98.9214 133.457 99.8272 117.892 100.161 114.906C100.357 113.356 100.435 111.793 100.397 110.231C100.397 110.231 100.254 105.559 99.778 103.39C99.778 103.39 99.2604 93.9961 99.2061 91.3954C99.1828 90.1514 99.2501 86.5215 99.3199 83.0696C99.4002 79.2956 99.4907 75.7364 99.4907 75.7364L98.2433 68.0706C98.2433 68.0706 99.4908 68.0706 99.778 68.4608C99.9044 68.5828 100.043 68.6908 100.192 68.7829C101.823 69.8986 107.586 73.3295 107.586 73.3295C107.586 73.3295 110.772 74.6128 111.536 76.4514C112.299 78.2899 112.83 79.5942 113.203 80.118C113.575 80.6418 113.772 83.1037 113.772 83.1037C113.772 83.1037 114.869 87.6345 115.726 88.4019C116.583 89.1693 117.201 94.0406 117.201 94.0406L109.631 100.064C109.631 100.064 108.966 110.085 108.821 110.472C108.676 110.86 111.588 119.524 111.588 119.524Z" fill="white"/>
<path opacity="0.1" d="M102.521 77.9599L103.205 79.9766L99.6072 83.6432C99.6874 79.8718 99.778 76.31 99.778 76.31L98.5305 68.6441C98.5305 68.6441 99.778 68.6441 100.065 69.0344C100.191 69.156 100.33 69.2632 100.479 69.3539L103.539 78.2847L102.521 77.9599Z" fill="black"/>
<path d="M102.234 77.3811L102.92 79.3978L99.3225 83.0644C99.4028 79.2904 99.4933 75.7311 99.4933 75.7311L98.2433 68.0653C98.2433 68.0653 99.4933 68.0653 99.778 68.4556C99.905 68.5768 100.044 68.6847 100.192 68.7777L103.254 77.7059L102.234 77.3811Z" fill="white"/>
<path opacity="0.1" d="M102.234 57.4269C102.236 58.3707 102.089 59.3087 101.799 60.2057C101.75 60.2134 101.701 60.2111 101.653 60.199C101.605 60.1868 101.559 60.1651 101.52 60.135C101.453 57.7779 100.306 55.5648 98.8955 53.6817C98.4995 53.1132 98.0194 52.6097 97.472 52.1889C96.9186 51.7683 96.2303 51.5713 95.5413 51.6363C94.7648 51.7437 94.0789 52.278 93.2947 52.3461C92.2595 52.4325 91.3329 51.707 90.3054 51.6704C89.8877 51.6744 89.4757 51.7685 89.0968 51.9464C88.7179 52.1244 88.3808 52.382 88.1081 52.7022C87.5683 53.3484 87.1673 54.1012 86.9305 54.9127C86.5236 56.1432 86.3019 57.4287 86.2731 58.7259C86.2602 59.4593 86.1903 60.3785 85.5174 60.6457C85.568 60.1064 85.5075 59.5623 85.3395 59.0479C85.1715 58.5335 84.8999 58.06 84.5416 57.6574L84.5261 57.6417C84.5261 57.5684 84.5261 57.5003 84.5261 57.4269C84.506 56.2373 84.7202 55.0555 85.1562 53.9505C85.5922 52.8455 86.2413 51.8394 87.0656 50.9909C87.8899 50.1424 88.8728 49.4685 89.9572 49.0084C91.0416 48.5484 92.2056 48.3115 93.3814 48.3115C94.5573 48.3115 95.7213 48.5484 96.8057 49.0084C97.89 49.4685 98.873 50.1424 99.6973 50.9909C100.522 51.8394 101.171 52.8455 101.607 53.9505C102.043 55.0555 102.257 56.2373 102.237 57.4269H102.234Z" fill="black"/>
<path d="M97.0475 43.1979C95.7026 42.5577 94.173 42.4366 92.7461 42.8574C92.0291 43.0722 91.3536 43.4205 90.6264 43.596C89.0735 43.9757 87.2618 43.5645 85.9289 44.4838C85.1887 45.0076 84.7435 45.8352 84.3294 46.6392L83.2942 48.6349C82.7299 49.727 82.1606 50.8375 81.925 52.0396C81.6895 53.2417 81.8319 54.5879 82.585 55.5543C83.1337 56.2588 83.9438 56.7015 84.5391 57.3641C84.8957 57.7671 85.1662 58.2403 85.3336 58.7541C85.5011 59.2679 85.5619 59.8111 85.5122 60.3497C86.1877 60.0878 86.2524 59.1659 86.2679 58.4326C86.2968 57.1354 86.5184 55.8499 86.9253 54.6193C87.1615 53.8076 87.5626 53.0547 88.1029 52.4089C88.3758 52.089 88.7129 51.8315 89.0918 51.6536C89.4707 51.4756 89.8826 51.3814 90.3003 51.377C91.3355 51.4137 92.2647 52.1365 93.2896 52.0501C94.066 51.9846 94.7544 51.4477 95.5361 51.343C96.2252 51.277 96.9139 51.4741 97.4668 51.8956C98.014 52.3157 98.4934 52.8193 98.8877 53.3884C100.301 55.2715 101.447 57.4793 101.515 59.8416C101.807 60.059 102.229 59.7762 102.374 59.4409C102.519 59.1057 102.524 58.7129 102.708 58.3933C102.92 58.0241 103.326 57.8276 103.645 57.55C104.452 56.8455 104.654 55.6591 104.623 54.5827C104.592 53.5063 104.385 52.4141 104.587 51.3561C104.708 50.7066 104.983 50.0989 105.133 49.4573C105.283 48.8156 105.301 48.0954 104.947 47.5428C104.429 46.7309 103.339 46.5711 102.389 46.4952C101.31 46.4009 100.345 46.5214 99.6564 45.6021C99.3332 45.1224 98.9695 44.672 98.5694 44.2559C98.4322 44.1198 97.0475 43.2555 97.0475 43.1979Z" fill="#512E4E"/>
<path opacity="0.1" d="M68.917 98.4274L66.2124 93.3675L65.3558 101.175C65.3558 101.175 65.832 104.642 65.7362 105.174C65.6404 105.706 67.6877 110.472 67.6877 110.472C67.6877 110.472 74.4505 122.661 77.212 123.29L86.5423 116.543L84.068 113.364C84.068 113.364 83.2113 113.026 82.9965 113.364C82.9965 113.364 78.4026 105.365 77.9263 104.786C77.4501 104.208 77.5433 103.053 77.5433 103.053C77.5433 103.053 76.829 102.283 77.0671 101.56C77.3052 100.837 75.6876 98.3305 75.6876 98.3305L77.1629 96.9346L68.917 98.4274Z" fill="black"/>
<path d="M66.3548 92.7914L65.6404 93.3675L64.7838 101.175C64.7838 101.175 65.26 104.642 65.1642 105.174C65.0685 105.706 67.1183 110.472 67.1183 110.472C67.1183 110.472 73.8785 122.661 76.64 123.29L85.9729 116.543L83.496 113.364C83.496 113.364 82.6394 113.026 82.4245 113.364C82.4245 113.364 77.8306 105.365 77.3544 104.786C76.8782 104.208 76.9739 103.053 76.9739 103.053C76.9739 103.053 76.2596 102.283 76.4977 101.56C76.7358 100.837 75.1156 98.3305 75.1156 98.3305L76.5909 96.9346L66.3548 92.7914Z" fill="white"/>
<path opacity="0.1" d="M110.682 123.376C111.2 124.013 110.873 126.87 110.873 126.87L109.445 129.264C109.445 129.264 109.53 130.809 109.535 132.891L107.134 133.65C106.916 133.719 106.686 133.734 106.462 133.694C106.238 133.655 106.027 133.561 105.846 133.422C105.665 133.283 105.519 133.102 105.421 132.894C105.323 132.687 105.276 132.458 105.283 132.228L105.697 118.712L111.3 120.88C110.824 121.215 111.347 122.038 111.347 122.038C111.347 122.038 110.159 122.74 110.682 123.376Z" fill="black"/>
<path d="M110.969 123.085C111.487 123.722 111.161 126.582 111.161 126.582L109.732 128.976C109.732 128.976 109.817 130.518 109.825 132.603L107.379 133.375C107.167 133.442 106.942 133.457 106.722 133.418C106.503 133.379 106.296 133.287 106.119 133.151C105.942 133.015 105.799 132.837 105.703 132.634C105.608 132.431 105.561 132.207 105.568 131.982L105.984 118.424L111.59 120.592C111.112 120.927 111.634 121.747 111.634 121.747C111.634 121.747 110.452 122.452 110.969 123.085Z" fill="white"/>
<path d="M112.825 116.643C112.825 116.643 112.444 119.102 111.492 119.246C110.54 119.39 110.112 123.224 109.163 123.088C108.213 122.952 108.842 119.524 108.875 118.858C108.909 118.193 107.84 115.438 108.64 114.812C109.44 114.186 111.971 114.812 111.971 114.812L112.825 116.643Z" fill="#CF6F80"/>
<path opacity="0.1" d="M114.851 97.7046L116.648 94.038C116.648 94.038 117.362 96.8325 117.362 98.3253C117.362 99.8181 118.361 99.9648 118.361 99.9648C118.361 99.9648 119.456 101.274 118.879 102.228C118.301 103.181 118.068 105.554 118.068 105.554C118.068 105.554 118.257 110.082 117.401 110.708C116.544 111.334 116.365 112.829 116.365 112.829C116.365 112.829 114.792 115.671 114.841 116.347C114.89 117.022 112.651 121.598 112.651 121.598C112.651 121.598 113.746 115.912 107.366 113.455C107.366 113.455 107.317 111.525 107.794 110.996C108.27 110.467 109.013 110.226 108.547 107.552C108.081 104.878 108.412 101.683 108.412 101.041C108.412 100.4 109.841 96.3977 109.841 96.3977L114.851 97.7046Z" fill="black"/>
<path d="M115.628 93.5142L117.196 94.038C117.196 94.038 117.913 96.8325 117.913 98.3253C117.913 99.8181 118.912 99.9648 118.912 99.9648C118.912 99.9648 120.007 101.274 119.43 102.228C118.853 103.181 118.622 105.554 118.622 105.554C118.622 105.554 118.811 110.082 117.955 110.708C117.098 111.334 116.906 112.829 116.906 112.829C116.906 112.829 115.335 115.671 115.385 116.347C115.434 117.022 113.192 121.598 113.192 121.598C113.192 121.598 114.29 115.912 107.907 113.455C107.907 113.455 107.861 111.525 108.337 110.996C108.813 110.467 109.556 110.226 109.09 107.552C108.624 104.878 108.956 101.683 108.956 101.041C108.956 100.4 110.384 96.3977 110.384 96.3977L115.628 93.5142Z" fill="white"/>
<path opacity="0.1" d="M80.9855 188.55C80.9855 188.55 83.4857 186.96 85.1266 188.115C86.7674 189.27 80.9855 188.55 80.9855 188.55Z" fill="black"/>
<path opacity="0.1" d="M100.412 183.634C100.412 183.634 102.625 183.346 104.483 185.371C106.342 187.395 100.412 183.634 100.412 183.634Z" fill="black"/>
<g opacity="0.1">
<path d="M103.65 56.9765C103.332 57.2541 102.923 57.4531 102.71 57.8224C102.529 58.1393 102.524 58.5295 102.379 58.87C102.234 59.2105 101.812 59.4881 101.52 59.2733C101.453 56.9162 100.303 54.7032 98.8929 52.8175C98.4985 52.2484 98.0192 51.7448 97.472 51.3246C96.9181 50.9032 96.2286 50.7061 95.5387 50.772C94.7622 50.8794 94.0789 51.4137 93.2947 51.4792C92.2595 51.5682 91.3303 50.8427 90.3028 50.8061C89.8853 50.8103 89.4735 50.9048 89.0949 51.0832C88.7164 51.2616 88.38 51.5198 88.1081 51.8406C87.5678 52.4854 87.1667 53.2375 86.9305 54.0484C86.5238 55.279 86.3022 56.5644 86.2731 57.8617C86.2576 58.5924 86.1903 59.5038 85.5225 59.7762C85.5381 59.9697 85.5381 60.1641 85.5225 60.3576C86.1955 60.0957 86.2628 59.1738 86.2783 58.4405C86.3071 57.1432 86.5287 55.8577 86.9357 54.6272C87.1719 53.8155 87.573 53.0626 88.1133 52.4168C88.3857 52.0969 88.7223 51.8394 89.1008 51.6615C89.4792 51.4836 89.8908 51.3893 90.308 51.3849C91.3433 51.4215 92.275 52.1444 93.2999 52.058C94.0764 51.9925 94.7648 51.4556 95.5438 51.3508C96.2338 51.2849 96.9232 51.482 97.4772 51.9034C98.0244 52.3236 98.5037 52.8272 98.8981 53.3963C100.309 55.2793 101.458 57.4872 101.525 59.8495C101.817 60.0669 102.239 59.784 102.384 59.4488C102.529 59.1136 102.534 58.7207 102.716 58.4012C102.928 58.0319 103.337 57.8355 103.655 57.5579C104.463 56.8534 104.664 55.667 104.633 54.5905C104.633 54.5565 104.633 54.5224 104.633 54.491C104.584 55.4234 104.338 56.3741 103.65 56.9765Z" fill="black"/>
<path d="M84.5442 56.7905C83.949 56.1279 83.1363 55.6853 82.5902 54.9834C82.1304 54.362 81.8677 53.6141 81.8371 52.8384C81.7556 53.8077 82.0231 54.7741 82.5902 55.5596C83.1363 56.2641 83.949 56.7067 84.5442 57.3693C85.1158 58.0174 85.4589 58.839 85.52 59.7055C85.5596 59.1781 85.4936 58.6482 85.3259 58.1473C85.1583 57.6464 84.8924 57.1849 84.5442 56.7905Z" fill="black"/>
<path d="M105.138 48.8837C104.985 49.5254 104.714 50.1356 104.589 50.7825C104.516 51.2148 104.489 51.6539 104.509 52.092C104.518 51.8424 104.545 51.5938 104.589 51.3482C104.714 50.6987 104.985 50.0911 105.138 49.4494C105.227 49.0955 105.256 48.7289 105.223 48.3652C105.207 48.5399 105.179 48.7132 105.138 48.8837Z" fill="black"/>
</g>
<path opacity="0.1" d="M34.3524 199.199C48.2804 199.199 59.5713 197.364 59.5713 195.1C59.5713 192.836 48.2804 191.001 34.3524 191.001C20.4244 191.001 9.13355 192.836 9.13355 195.1C9.13355 197.364 20.4244 199.199 34.3524 199.199Z" fill="#4686FF"/>
<path d="M35.1651 116.582H33.5423V153.555H35.1651V116.582Z" fill="#535461"/>
<path d="M45.3624 153.442L45.2614 155.108L45.1165 157.465L45.057 158.445L44.9146 160.802L44.8525 161.781L44.7076 164.138L43.0719 190.87C43.0008 192.021 42.4992 193.1 41.6693 193.889C40.8394 194.679 39.7436 195.118 38.6047 195.119H30.1001C28.9615 195.118 27.8659 194.678 27.0365 193.889C26.207 193.1 25.706 192.02 25.6355 190.87L24.0076 164.12L23.8627 161.763L23.8031 160.783L23.6582 158.426L23.5987 157.447L23.4537 155.09L23.3502 153.424C23.3322 153.103 23.3792 152.782 23.4882 152.481C23.5971 152.179 23.7659 151.903 23.984 151.67C24.2021 151.437 24.465 151.251 24.7566 151.125C25.0481 150.998 25.3622 150.933 25.6795 150.933H43.0744C43.3906 150.936 43.7028 151.004 43.9918 151.134C44.2808 151.263 44.5406 151.452 44.755 151.687C44.9693 151.922 45.1339 152.199 45.2383 152.501C45.3428 152.803 45.385 153.123 45.3624 153.442Z" fill="#3F3D56"/>
<path d="M45.2614 155.108L45.1165 157.457H23.5883L23.4434 155.108H45.2614Z" fill="#9D9CB5"/>
<path d="M45.057 158.437L44.9146 160.789H23.7928L23.6479 158.437H45.057Z" fill="#9D9CB5"/>
<path d="M44.8525 161.771L44.7101 164.12H23.9972L23.8523 161.771H44.8525Z" fill="#9D9CB5"/>
<path d="M20.9665 130.44C30.4158 137.359 34.3602 148.181 34.3602 148.181C34.3602 148.181 22.9723 147.785 13.5205 140.866C4.06856 133.946 0.131996 123.127 0.131996 123.127C0.131996 123.127 11.5146 123.52 20.9665 130.44Z" fill="#4686FF"/>
<path d="M0.124229 123.127C0.124229 123.127 11.9469 129.766 15.7385 135.264C19.5301 140.761 34.3602 148.181 34.3602 148.181" stroke="#535461" stroke-width="2" stroke-miterlimit="10"/>
<path d="M27.0668 116.501C32.2094 120.265 34.3602 126.155 34.3602 126.155C34.3602 126.155 28.1616 125.94 23.0163 122.177C17.8711 118.413 15.7255 112.52 15.7255 112.52C15.7255 112.52 21.9216 112.735 27.0668 116.501Z" fill="#4686FF"/>
<path d="M15.7255 112.52C15.7255 112.52 22.1597 116.135 24.2224 119.125C26.2852 122.116 34.3602 126.155 34.3602 126.155" stroke="#535461" stroke-width="2" stroke-miterlimit="10"/>
<path d="M41.827 125.856C35.9182 132.427 34.6682 141.015 34.6682 141.015C34.6682 141.015 42.9994 138.946 48.9029 132.372C54.8065 125.799 56.0617 117.214 56.0617 117.214C56.0617 117.214 47.7357 119.285 41.827 125.856Z" fill="#4686FF"/>
<path d="M56.0669 117.216C56.0669 117.216 48.3698 123.952 46.4131 128.593C44.4565 133.234 34.6682 141.015 34.6682 141.015" stroke="#535461" stroke-width="2" stroke-miterlimit="10"/>
<path d="M258.729 123.544C258.729 123.544 254.456 102.031 256.091 99.3546C256.091 99.3546 256.151 96.8665 256.053 93.6949C256.053 93.5744 256.053 93.454 256.053 93.3309C256.34 93.525 256.64 93.7 256.951 93.8547C258.458 94.6382 260.188 94.8642 261.842 94.4937L260.548 93.0349C260.238 92.6866 259.914 92.3094 259.847 91.8485C259.78 91.3876 259.966 90.9764 260.126 90.5652C261.356 87.4224 261.42 83.4703 259.052 81.0713C257.052 79.0547 256.565 76.4514 254.394 74.6102C252.807 73.2614 251.935 71.2841 251.112 69.3722C250.416 67.7563 249.714 66.1273 249.316 64.4144C249.005 63.0761 248.881 61.6907 248.454 60.3838C248.027 59.0769 247.227 57.8067 245.977 57.2226C245.532 57.0157 245.037 56.8979 244.631 56.6229C244.098 56.2588 243.777 55.667 243.391 55.1484C241.432 52.5294 234.871 54.072 231.765 55.1353C230.921 55.4031 230.139 55.8414 229.467 56.4238L229.496 56.3767C229.519 56.3374 229.547 56.2981 229.573 56.2589C229.233 56.537 228.94 56.8686 228.704 57.241C228.251 57.9664 228.062 58.8124 227.684 59.5981C227.228 60.5278 224.695 63.1233 225.784 64.1682C225.861 64.2384 225.948 64.2951 226.043 64.3359C226.452 64.5081 226.903 64.5537 227.337 64.4668L227.291 64.5794C226.918 65.5014 226.728 66.488 226.729 67.4839C226.729 71.7869 230.236 75.2754 234.566 75.2754C235.38 75.2762 236.189 75.1499 236.965 74.9009C236.983 75.0004 236.999 75.1 237.017 75.1995C237.017 75.2388 237.03 75.2781 237.035 75.3173L236.898 75.5112C236.891 75.4992 236.883 75.4878 236.874 75.4771L232.811 81.2232C232.19 81.6658 228.613 84.2848 228.411 86.2491C228.199 88.3993 227.987 90.9161 227.987 90.9161L227.958 91.4557C227.781 91.6058 227.573 91.7152 227.35 91.7762C227.126 91.8373 226.892 91.8485 226.664 91.8092C225.396 91.5997 225.396 96.5234 225.396 96.5234C225.396 96.5234 224.552 97.3091 223.973 96.6282C223.393 95.9472 221.861 98.2546 221.861 98.2546L212.259 98.6736L212.039 98.6867L211.521 97.0656C211.465 96.8946 211.345 96.7527 211.187 96.6708C211.028 96.5889 210.844 96.5736 210.675 96.6282C210.635 96.6415 210.596 96.6582 210.558 96.6779L210.522 96.6989L210.455 96.746L210.421 96.7775C210.403 96.7945 210.385 96.8129 210.369 96.8325L210.338 96.8691L210.323 96.8848C210.263 96.9685 210.223 97.0651 210.207 97.167C210.191 97.2689 210.199 97.3732 210.23 97.4715L210.675 98.8622C208.822 99.2393 206.927 100.303 208.472 103.231L200.641 101.767L203.174 103.92L216.255 106.651C216.081 106.965 216.195 107.421 216.736 108.063C219.065 110.831 223.31 111.583 225.018 111.777C225.469 112.798 226.033 113.764 226.698 114.657L226.55 117.415C226.55 117.415 222.226 138.435 221.434 139.501C221.833 139.043 222.199 138.555 222.528 138.043C221.273 142.361 219.518 148.272 219.058 149.158C218.318 150.572 217.632 156.294 218.475 156.661C218.734 156.774 219.474 156.719 220.53 156.637V157.111L220.484 175.075C220.484 175.075 220.696 186.093 220.114 187.144C219.531 188.194 219.376 190.396 219.376 190.396C219.376 190.396 217.047 194.741 215.201 196.488C215.189 196.502 215.175 196.514 215.16 196.525L215.103 196.116C215.103 196.116 212.885 198.95 207.978 198.79C207.978 198.79 205.025 200.734 209.404 200.838C213.783 200.943 219.376 200.681 219.376 200.681C219.376 200.681 223.282 194.658 226.553 195.443V200.008H227.555V195.37C228.019 195.06 228.417 194.659 228.723 194.189C229.03 193.72 229.239 193.192 229.338 192.638C229.424 192.067 229.361 191.484 229.156 190.945C228.95 190.406 228.61 189.931 228.168 189.566C227.969 189.385 227.81 189.163 227.7 188.916C227.59 188.669 227.532 188.402 227.529 188.131L227.492 188.162C227.492 188.071 227.469 187.976 227.459 187.88C227.172 185.522 226.812 180.659 228.083 177.06C229.824 172.126 230.352 165.254 229.084 161.163C228.675 159.855 228.339 158.525 228.077 157.18C228.046 157.009 228.018 156.847 227.992 156.695C228.859 156.814 229.717 156.989 230.562 157.219C233.5 158.039 239.926 158.191 245.413 158.146C245.426 158.298 245.441 158.458 245.459 158.617C245.557 159.728 245.762 160.826 246.07 161.896C246.759 163.992 247.074 173.229 247.074 173.229C247.074 173.229 247.962 180.824 247.478 183.914C247.219 185.632 246.96 187.358 246.813 189.092V189.126C246.813 189.126 245.358 193.317 244.295 195.593C244.269 195.65 244.24 195.708 244.214 195.763C243.931 195.789 243.652 195.851 243.384 195.949C243.384 195.949 241.958 198.83 240.537 199.306C239.116 199.783 239.587 201.352 242.804 200.776C246.021 200.199 250.879 199.728 250.879 199.728L251.089 196.789L252.077 195.538L251.818 198.468L252.872 198.259L252.732 194.694L254.35 192.646C254.35 192.646 256.304 190.886 253.4 187.424V187.5C253.369 187.45 253.34 187.398 253.307 187.348V187.332C252.825 186.578 252.442 185.172 253.144 182.676C254.412 178.166 255.149 174.072 255.149 174.072C255.149 174.072 257.981 163.106 254.577 157.918H254.727C254.379 157.188 254.132 156.412 253.995 155.613C253.978 155.519 253.962 155.422 253.948 155.323C256.467 155.176 258.938 154.715 260.955 153.72C260.947 153.709 259.733 127.687 258.729 123.544ZM226.757 105.394V105.446L226.24 105.473L226.757 105.394ZM224.982 105.643C224.897 105.662 224.817 105.7 224.749 105.755C224.527 106.074 224.387 106.444 224.343 106.832L223.535 106.649C223.535 106.649 222.968 106.525 222.153 106.387L221.768 105.994C222.829 105.905 223.931 105.774 224.982 105.643Z" fill="url(#paint1_linear_2_18)"/>
<path d="M251.699 194.731L251.391 198.442L252.424 198.233L252.269 194.207L251.699 194.731Z" fill="#1D2366"/>
<path d="M228.139 177.11C226.895 180.698 227.247 185.541 227.526 187.893C227.63 188.762 227.725 189.291 227.725 189.291C227.725 189.291 225.865 193.581 225.709 193.744C225.554 193.906 220.233 197.193 220.233 197.193L216.514 199.39C216.514 199.39 212.74 197.717 214.549 197.14C214.919 196.99 215.252 196.761 215.525 196.467C217.337 194.726 219.612 190.396 219.612 190.396C219.612 190.396 219.767 188.199 220.336 187.154C220.906 186.109 220.699 175.128 220.699 175.128L220.743 157.227V154.893L227.821 154.946C227.866 155.738 227.968 156.526 228.127 157.303C228.381 158.644 228.71 159.97 229.113 161.273C230.36 165.356 229.842 172.194 228.139 177.11Z" fill="#FFB0B1"/>
<path opacity="0.1" d="M227.725 189.291C227.725 189.291 225.865 193.581 225.709 193.744C225.554 193.906 220.233 197.193 220.233 197.193L216.514 199.39C216.514 199.39 212.74 197.717 214.549 197.14C214.919 196.99 215.252 196.761 215.525 196.467L215.685 197.612L216.925 197.559L227.536 187.898C227.63 188.762 227.725 189.291 227.725 189.291Z" fill="black"/>
<path d="M227.596 188.141L216.925 197.868L215.685 197.921L215.427 196.088C215.427 196.088 213.258 198.911 208.439 198.754C208.439 198.754 205.545 200.689 209.834 200.794C214.122 200.899 219.599 200.637 219.599 200.637C219.599 200.637 223.424 194.613 226.625 195.399V199.948H227.609V195.357C228.066 195.045 228.456 194.643 228.756 194.175C229.056 193.707 229.259 193.183 229.353 192.633C229.438 192.067 229.378 191.488 229.178 190.952C228.978 190.417 228.646 189.942 228.212 189.574C228.018 189.39 227.864 189.168 227.758 188.922C227.652 188.676 227.597 188.41 227.596 188.141Z" fill="#1D2366"/>
<path d="M252.683 182.704C251.994 185.192 252.37 186.594 252.841 187.345V187.361C253.445 188.289 253.865 189.327 254.078 190.417L254.119 190.653L249.264 197.816L246.629 198.864C246.629 198.864 242.392 197.4 243.166 196.981C243.36 196.878 243.663 196.334 244.01 195.582C245.045 193.317 246.474 189.137 246.474 189.137V189.103C246.624 187.377 246.862 185.656 247.126 183.943C247.6 180.861 246.73 173.294 246.73 173.294C246.73 173.294 246.42 164.094 245.747 162.001C245.443 160.937 245.241 159.846 245.144 158.743C245.004 157.434 244.973 156.355 244.973 156.355C244.973 156.355 247.763 152.426 252.877 156.669C253.286 157.007 253.646 157.402 253.946 157.842C257.479 162.928 254.634 174.132 254.634 174.132C254.634 174.132 253.923 178.208 252.683 182.704Z" fill="#FFB0B1"/>
<path opacity="0.1" d="M254.127 190.653L249.272 197.816L246.637 198.864C246.637 198.864 242.4 197.4 243.174 196.981C243.368 196.878 243.671 196.334 244.018 195.582C245.811 195.566 246.74 197.295 246.74 197.295L249.013 196.928C249.013 196.928 252.01 190.967 252.683 190.603C253.356 190.239 252.786 187.882 252.786 187.882V187.282C252.804 187.303 252.82 187.327 252.841 187.348V187.364C253.445 188.292 253.865 189.33 254.078 190.42L254.127 190.653Z" fill="black"/>
<path d="M246.896 197.449C246.896 197.449 245.602 195.045 243.122 195.933C243.122 195.933 241.727 198.814 240.332 199.28C238.937 199.746 239.403 201.318 242.555 200.744C245.708 200.171 250.46 199.697 250.46 199.697L250.667 196.766L253.871 192.636C253.871 192.636 255.781 190.884 252.939 187.434V188.034C252.939 188.034 253.508 190.391 252.836 190.755C252.163 191.119 249.176 197.083 249.176 197.083L246.896 197.449Z" fill="#1D2366"/>
<path opacity="0.1" d="M227.829 154.94C227.874 155.733 227.976 156.52 228.134 157.297C225.22 156.865 222.515 157.08 220.743 157.221V154.888L227.829 154.94Z" fill="black"/>
<path opacity="0.1" d="M254.233 158.494C254.233 158.494 250.092 158.699 245.154 158.741C245.014 157.431 244.983 156.352 244.983 156.352C244.983 156.352 247.773 152.423 252.887 156.666C253.296 157.005 253.656 157.4 253.956 157.84C254.036 158.063 254.129 158.281 254.233 158.494Z" fill="black"/>
<path d="M254.233 158.023C254.233 158.023 236.095 158.911 230.567 157.342C225.039 155.773 219.56 157.132 218.734 156.768C217.909 156.404 218.579 150.703 219.304 149.291C220.028 147.879 224.004 133.603 224.004 133.603L227.829 113.421L231.859 112.298L232.143 112.217L239.165 110.257L244.31 108.82C244.31 108.82 254.541 149.239 253.664 152.219C253.345 153.36 253.294 154.561 253.514 155.726C253.648 156.522 253.89 157.295 254.233 158.023Z" fill="#1D2366"/>
<path d="M214.495 99.6191C214.495 99.6191 210.871 103.548 213.615 105.737C216.358 107.927 218.162 105.947 218.162 105.947L214.495 99.6191Z" fill="#C7DAF5"/>
<path opacity="0.1" d="M214.495 99.6191C214.495 99.6191 210.871 103.548 213.615 105.737C216.358 107.927 218.162 105.947 218.162 105.947L214.495 99.6191Z" fill="black"/>
<path d="M243.769 73.7905C243.769 73.7905 243.345 74.199 242.706 74.8014C241.795 75.6631 240.446 76.9228 239.25 77.9783C237.594 79.437 236.227 80.5082 236.717 79.5942C237.206 78.6802 237.113 77.0878 236.869 75.5976C236.851 75.4981 236.836 75.3985 236.818 75.3016C236.616 74.2072 236.349 73.1262 236.018 72.0645C236.018 72.0645 238.694 68.5656 240.174 67.1853C240.726 66.6615 241.111 66.4468 241.135 66.8108C241.16 67.3006 241.523 68.3822 241.973 69.5293C241.986 69.566 241.999 69.6001 242.015 69.6367C242.315 70.4224 242.654 71.2291 242.951 71.9257C243.407 72.9943 243.769 73.7905 243.769 73.7905Z" fill="#FFB0B1"/>
<path opacity="0.1" d="M242.015 69.6367C241.763 71.0055 241.153 72.2808 240.248 73.3294C239.343 74.378 238.176 75.1613 236.869 75.5976C236.664 74.402 236.379 73.2217 236.018 72.0645C236.018 72.0645 241.057 65.4777 241.135 66.8108C241.153 67.3163 241.546 68.4372 242.015 69.6367Z" fill="black"/>
<path opacity="0.1" d="M236.367 77.3575L237.019 76.4278C237.019 76.4278 237.452 79.094 239.041 77.918C240.63 76.7421 240.708 86.7676 240.708 86.7676L239.002 112.573L226.677 111.826L227.027 99.3572L228.422 93.0716L231.872 83.9339L233.924 80.9142L236.367 77.3575Z" fill="black"/>
<path d="M240.708 86.9274L239.155 110.26L238.992 112.732L232.12 112.316L231.861 112.3L226.685 111.986L227.034 99.5143L228.429 93.2287L231.879 84.091L233.932 81.0713L236.375 77.5016L237.027 76.5745C237.027 76.5745 237.459 79.2406 239.049 78.0647L239.082 78.0411C240.635 77.0459 240.708 86.9274 240.708 86.9274Z" fill="#1D2366"/>
<path d="M228.603 91.0445C228.603 91.0445 227.984 92.354 226.742 92.1418C225.5 91.9297 225.502 96.8561 225.502 96.8561C225.502 96.8561 224.677 97.6418 224.107 96.9608C223.538 96.2799 222.037 98.582 222.037 98.582L212.631 99.001C212.631 99.001 216.816 100.936 215.996 106.793C215.996 106.793 230.205 105.902 230.671 104.543C231.137 103.184 228.603 91.0445 228.603 91.0445Z" fill="white"/>
<path opacity="0.03" d="M228.603 91.0445C228.603 91.0445 227.984 92.354 226.742 92.1418C225.5 91.9297 225.502 96.8561 225.502 96.8561C225.502 96.8561 224.677 97.6418 224.107 96.9608C223.538 96.2799 222.037 98.582 222.037 98.582L212.631 99.001C212.631 99.001 216.816 100.936 215.996 106.793C215.996 106.793 230.205 105.902 230.671 104.543C231.137 103.184 228.603 91.0445 228.603 91.0445Z" fill="black"/>
<path d="M201.269 102.078L203.749 104.221L224.159 108.56L221.628 105.947L201.269 102.078Z" fill="white"/>
<path d="M236.406 78.1825C236.067 78.7063 235.096 81.3882 234.286 83.7296C233.611 85.6807 233.047 87.3962 233.047 87.3962C233.047 87.3962 231.729 96.0756 231.056 97.6444C230.383 99.2131 230.748 105.331 230.748 105.331L228.24 120.44C228.24 120.44 227.104 128.232 225.349 132.886C223.618 137.466 221.69 139.614 221.63 139.682C222.407 138.619 226.638 117.682 226.638 117.682L228.036 91.2776C228.036 91.2776 228.24 88.7686 228.447 86.6236C228.655 84.4786 232.847 81.5506 232.847 81.5506L236.89 75.7338C237.296 76.2838 237.025 77.2423 236.406 78.1825Z" fill="white"/>
<path d="M225.865 112.117C225.865 112.117 219.912 111.855 217.029 108.351C214.145 104.847 223.693 106.952 223.693 106.952L226.175 107.528L225.865 112.117Z" fill="#FFB0B1"/>
<path opacity="0.1" d="M253.664 152.222C253.345 153.363 253.294 154.564 253.514 155.729C247.02 156.195 240.073 154.419 240.073 154.419C238.779 155.624 235.371 157.4 235.371 157.4L233.512 134.09C232.325 130.948 231.859 114.482 231.859 114.482C231.859 114.482 231.965 113.62 232.117 112.329C232.117 112.298 232.117 112.264 232.13 112.232C232.594 108.626 233.512 101.856 233.963 100.942C234.584 99.6846 232.053 96.3401 232.053 96.3401L233.204 86.401L233.344 85.2015C235.772 84.1041 237.633 80.5999 237.633 80.5999L239.061 78.0673C240.614 77.059 240.695 86.9405 240.695 86.9405L239.142 110.273L244.287 108.835C244.287 108.835 254.541 149.241 253.664 152.222Z" fill="black"/>
<path d="M260.328 153.833C253.25 157.389 240.384 154.094 240.384 154.094C239.09 155.299 235.681 157.075 235.681 157.075L233.82 133.766C232.635 130.623 232.169 114.157 232.169 114.157C232.169 114.157 233.665 101.871 234.286 100.617C234.468 100.25 234.38 99.7055 234.165 99.1189C233.109 96.3266 232.72 93.3211 233.031 90.3478L233.528 86.0762L233.665 84.8793C236.095 83.7794 237.956 80.2751 237.956 80.2751L239.25 77.9809L241.631 73.7538L242.76 71.7529L242.951 71.9284L244.414 73.2693C244.414 73.2693 245.035 73.7931 245.967 74.5788C247.993 76.3073 251.495 79.3506 253.301 81.2127C254.891 82.8522 255.393 89.2295 255.538 94.0301C255.633 97.1913 255.576 99.6689 255.576 99.6689C253.974 102.338 258.165 123.764 258.165 123.764C259.14 127.904 260.328 153.833 260.328 153.833Z" fill="white"/>
<path opacity="0.03" d="M246.74 80.2227C246.74 80.2227 241.883 89.5804 242.447 93.1371C243.011 96.6937 244.616 100.719 243.842 101.659C243.576 102.016 243.232 102.305 242.837 102.504C242.443 102.704 242.008 102.808 241.567 102.809C240.79 102.861 238.72 104.325 238.72 104.483C238.72 104.64 236.807 104.64 235.096 105.373C233.386 106.106 230.86 106.523 230.86 106.523C230.86 106.523 225.942 106.366 225.484 106.837C225.026 107.308 224.555 110.129 225.536 112.379C226.517 114.629 227.606 116.307 228.429 116.614C229.252 116.92 234.475 115.15 238.712 114.731C242.949 114.312 247.548 110.915 247.548 110.915C247.548 110.915 252.613 109.082 253.501 105.999C254.388 102.916 252.416 85.9741 252.416 85.9741C252.416 85.9741 250.926 78.0778 246.74 80.2227Z" fill="black"/>
<path opacity="0.03" d="M246.119 79.437C246.119 79.437 241.261 88.7974 241.831 92.3514C242.4 95.9053 244 99.9334 243.223 100.876C242.958 101.233 242.615 101.522 242.221 101.722C241.826 101.921 241.392 102.025 240.951 102.026C240.174 102.078 238.104 103.542 238.104 103.7C238.104 103.857 236.191 103.857 234.48 104.587C232.77 105.318 230.244 105.737 230.244 105.737C230.244 105.737 225.326 105.58 224.871 106.051C224.415 106.523 223.939 109.346 224.922 111.593C225.906 113.84 226.993 115.522 227.816 115.828C228.639 116.135 233.862 114.364 238.099 113.948C242.335 113.531 246.935 110.129 246.935 110.129C246.935 110.129 251.997 108.296 252.874 105.216C253.752 102.136 251.79 85.1884 251.79 85.1884C251.79 85.1884 250.304 77.2947 246.119 79.437Z" fill="black"/>
<path d="M246.588 79.7513C246.588 79.7513 241.73 89.1116 242.299 92.6656C242.869 96.2196 244.468 100.248 243.694 101.188C243.429 101.545 243.086 101.836 242.691 102.036C242.296 102.236 241.861 102.34 241.419 102.34C240.643 102.393 238.572 103.857 238.572 104.011C238.572 104.166 236.662 104.168 234.949 104.902C233.236 105.635 230.712 106.051 230.712 106.051C230.712 106.051 225.795 105.894 225.337 106.366C224.878 106.837 224.407 109.66 225.388 111.907C226.369 114.155 227.459 115.836 228.282 116.142C229.105 116.449 234.328 114.678 238.565 114.259C242.801 113.84 247.4 110.443 247.4 110.443C247.4 110.443 252.465 108.61 253.353 105.528C254.241 102.445 252.282 85.5027 252.282 85.5027C252.282 85.5027 250.77 77.6195 246.588 79.7513Z" fill="white"/>
<path opacity="0.1" d="M246.482 104.857C246.482 104.857 242.599 104.071 243.95 105.381C245.301 106.69 245.294 107.838 246.948 107.785C248.601 107.733 246.482 104.857 246.482 104.857Z" fill="black"/>
<path opacity="0.1" d="M253.043 133.032C253.043 133.032 251.288 134.234 254.645 137.005C258.001 139.776 253.043 133.032 253.043 133.032Z" fill="black"/>
<path opacity="0.1" d="M249.694 142.914C249.694 143.071 249.072 148.676 251.397 150.077C253.721 151.478 249.694 142.914 249.694 142.914Z" fill="black"/>
<path d="M212.792 98.9879C210.918 99.0534 206.87 99.6322 208.969 103.595C210.825 107.102 213.944 104.758 215.698 102.979C215.27 101.321 214.23 99.8927 212.792 98.9879Z" fill="#FFB0B1"/>
<path d="M215.722 102.948L215.798 102.867L215.722 102.948Z" fill="#FFB0B1"/>
<path opacity="0.1" d="M245.967 74.7385C243.979 76.1135 242.312 77.2737 241.986 77.5147C241.096 78.1825 239.398 82.1032 238.303 84.1041C237.431 85.7148 234.597 86.1286 233.528 86.2307L233.665 85.0339C236.095 83.9339 237.956 80.4296 237.956 80.4296L242.76 71.9074L244.414 73.429C244.414 73.429 245.035 73.9528 245.967 74.7385Z" fill="black"/>
<path d="M245.967 74.5814C243.979 75.9564 242.312 77.1166 241.986 77.3602C241.096 78.0254 239.398 81.946 238.303 83.947C237.431 85.5577 234.597 85.9715 233.528 86.0736L233.665 84.8767C236.095 83.7767 237.956 80.2725 237.956 80.2725L242.76 71.7503L244.414 73.2667C244.414 73.2667 245.035 73.7852 245.967 74.5814Z" fill="#DCE7FF"/>
<path d="M242.141 67.9082C242.142 69.4804 241.671 71.0157 240.79 72.3107C239.75 73.8419 238.202 74.9449 236.426 75.4197C234.651 75.8945 232.766 75.7095 231.114 74.8984C229.462 74.0872 228.152 72.7037 227.422 70.9988C226.691 69.2938 226.589 67.3805 227.134 65.6059C227.678 63.8313 228.834 62.313 230.39 61.3265C231.946 60.3401 233.8 59.9508 235.616 60.2293C237.431 60.5079 239.088 61.4357 240.285 62.8446C241.482 64.2535 242.141 66.05 242.141 67.9082Z" fill="#FFB0B1"/>
<path opacity="0.1" d="M255.538 94.0328C254.487 93.3785 253.631 92.448 253.061 91.3404C252.629 90.4762 252.341 89.4783 251.604 88.8655C250.938 88.3155 250.051 88.1819 249.223 87.9357C246.5 87.1212 244.217 84.607 244.132 81.7365C244.09 80.3851 244.507 79.0363 244.318 77.698C244.211 76.9406 243.913 76.2237 243.454 75.6159C243.225 75.3252 242.975 75.0529 242.706 74.8014C242.343 74.4557 241.963 74.1205 241.631 73.7538C241.423 73.5268 241.24 73.2763 241.088 73.0074C240.965 72.7873 240.865 72.5547 240.79 72.3133C240.273 70.7105 240.744 68.8091 240.174 67.188L240.143 67.0989C239.928 66.5227 239.491 65.9465 238.883 65.902C238.275 65.8575 237.754 66.3682 237.175 66.5961C235.961 67.0727 234.651 66.2608 233.639 65.4332C232.627 64.6056 231.486 63.6602 230.2 63.8435C229.348 63.9666 228.675 64.5532 227.891 64.857C227.714 64.9264 227.531 64.9799 227.345 65.0168C228.009 63.342 229.228 61.9533 230.793 61.0894C232.359 60.2255 234.173 59.9402 235.924 60.2826C237.675 60.6251 239.253 61.5738 240.387 62.9658C241.522 64.3579 242.142 66.1063 242.141 67.9108C242.142 68.4557 242.086 68.9991 241.973 69.532C241.986 69.5686 241.999 69.6027 242.015 69.6393C242.315 70.425 242.654 71.2317 242.951 71.9283L244.414 73.2693C244.414 73.2693 245.035 73.7931 245.967 74.5788C247.993 76.3073 251.495 79.3506 253.301 81.2127C254.891 82.8575 255.387 89.2321 255.538 94.0328Z" fill="black"/>
<path d="M227.8 60.0721C228.171 59.31 228.354 58.4562 228.797 57.7333C229.447 56.6857 230.58 56.0153 231.745 55.6093C234.786 54.5486 241.212 53.0087 243.133 55.6093C243.51 56.1331 243.824 56.7146 244.346 57.076C244.745 57.351 245.226 57.4688 245.664 57.6757C246.888 58.2571 247.67 59.5247 248.086 60.8185C248.503 62.1123 248.627 63.5004 248.933 64.8335C249.323 66.5437 250.009 68.1648 250.693 69.7755C251.497 71.6769 252.352 73.649 253.904 74.9926C256.024 76.8259 256.493 79.4213 258.46 81.4327C260.789 83.8213 260.714 87.7629 259.513 90.8926C259.355 91.3038 259.177 91.7333 259.239 92.1706C259.301 92.608 259.622 93.0061 259.924 93.3544L261.198 94.808C258.185 95.5439 254.777 93.9516 253.374 91.1571C252.942 90.2928 252.654 89.2976 251.914 88.6821C251.252 88.1321 250.361 88.0012 249.536 87.755C246.813 86.9379 244.53 84.421 244.445 81.5506C244.403 80.2018 244.82 78.853 244.631 77.5173C244.526 76.7548 244.227 76.0329 243.764 75.4221C243.052 74.4819 241.978 73.8507 241.399 72.8031C240.418 71.051 241.163 68.7751 240.456 66.8946C240.239 66.3184 239.804 65.7423 239.196 65.6977C238.588 65.6532 238.068 66.1639 237.485 66.3918C236.274 66.8684 234.964 66.0592 233.952 65.2289C232.941 64.3987 231.799 63.4559 230.51 63.6418C229.659 63.7623 228.988 64.349 228.204 64.6554C227.624 64.8806 226.449 65.0823 225.942 64.5873C224.871 63.5894 227.353 61.0045 227.8 60.0721Z" fill="#591D4B"/>
<path opacity="0.1" d="M254.093 90.2928C253.659 89.4286 253.374 88.4333 252.634 87.8205C251.971 87.2705 251.081 87.1369 250.253 86.8907C247.532 86.0762 245.25 83.5594 245.162 80.6889C245.12 79.3401 245.537 77.9887 245.351 76.653C245.242 75.8954 244.944 75.1786 244.484 74.5709C243.769 73.6307 242.695 72.9995 242.118 71.9519C241.137 70.2024 241.883 67.9265 241.173 66.0434C240.959 65.4699 240.521 64.8937 239.916 64.8466C239.31 64.7994 238.785 65.3154 238.205 65.5432C236.994 66.0199 235.681 65.208 234.672 64.3804C233.663 63.5528 232.516 62.6073 231.23 62.7906C230.378 62.9137 229.705 63.5004 228.924 63.8042C228.344 64.0294 227.166 64.2337 226.659 63.7387C225.593 62.6911 228.075 60.1114 228.52 59.1843C228.89 58.4195 229.074 57.5683 229.519 56.8455C229.542 56.8062 229.568 56.7669 229.594 56.7277C229.261 57.0068 228.974 57.3374 228.743 57.7072C228.3 58.43 228.116 59.2786 227.746 60.0459C227.298 60.9731 224.816 63.5606 225.885 64.6004C226.403 65.098 227.568 64.8937 228.147 64.6685C228.924 64.362 229.602 63.7754 230.453 63.6549C231.747 63.469 232.886 64.4144 233.896 65.242C234.905 66.0696 236.225 66.8815 237.431 66.4049C238.011 66.177 238.518 65.6637 239.139 65.7108C239.76 65.758 240.174 66.3315 240.4 66.9077C241.106 68.7882 240.361 71.0641 241.342 72.8162C241.921 73.8455 242.995 74.4897 243.707 75.4352C244.17 76.046 244.469 76.7679 244.574 77.5304C244.763 78.8661 244.346 80.2149 244.388 81.5637C244.473 84.4446 246.756 86.951 249.479 87.7681C250.299 88.0143 251.195 88.1452 251.857 88.6952C252.6 89.3107 252.892 90.3059 253.317 91.1702C254.72 93.9647 258.128 95.557 261.141 94.8211L260.54 94.1349C257.929 94.1742 255.287 92.6709 254.093 90.2928Z" fill="black"/>
<path opacity="0.1" d="M236.251 78.3397C235.912 78.8635 234.941 81.5453 234.131 83.8867C233.373 83.5882 232.684 81.6841 232.684 81.6841L236.727 75.8647C237.141 76.4409 236.869 77.3968 236.251 78.3397Z" fill="black"/>
<path d="M236.406 78.1825C236.067 78.7063 235.096 81.3882 234.286 83.7296C233.528 83.4336 232.84 81.527 232.84 81.527L236.882 75.7102C237.296 76.2838 237.025 77.2423 236.406 78.1825Z" fill="#DCE7FF"/>
<path d="M212.901 104.938L210.659 97.7858C210.633 97.7021 210.623 97.6138 210.63 97.5262C210.637 97.4386 210.662 97.3532 210.701 97.2751C210.741 97.197 210.796 97.1277 210.863 97.071C210.929 97.0144 211.006 96.9716 211.089 96.9451C211.256 96.8924 211.436 96.9085 211.591 96.9899C211.746 97.0714 211.864 97.2115 211.917 97.3798L214.158 104.524L213.936 106.02L212.901 104.938Z" fill="#BE8B87"/>
<path opacity="0.1" d="M210.871 97.1572C211.039 97.1037 211.22 97.1195 211.376 97.2009C211.531 97.2824 211.649 97.4231 211.702 97.592L213.944 104.737L213.775 105.858L213.938 106.03L214.161 104.535L211.907 97.3903C211.853 97.222 211.736 97.0819 211.581 97.0004C211.426 96.919 211.245 96.9029 211.078 96.9556C210.938 97.0016 210.817 97.0938 210.734 97.2175C210.778 97.1936 210.824 97.1734 210.871 97.1572Z" fill="white"/>
<path d="M212.901 104.938L214.158 104.535L213.975 105.761L213.936 106.03L213.568 105.643L212.901 104.938Z" fill="#EFC8C4"/>
<path d="M213.568 105.643C213.59 105.615 213.617 105.592 213.648 105.575C213.667 105.563 213.688 105.557 213.709 105.557C213.731 105.557 213.752 105.563 213.77 105.575C213.788 105.596 213.803 105.62 213.814 105.645C213.831 105.674 213.855 105.699 213.882 105.718C213.91 105.736 213.942 105.748 213.975 105.753L213.936 106.015L213.568 105.643Z" fill="#727A9C"/>
<path d="M210.646 100.326C210.646 100.326 215.142 100.3 214.083 102.235C213.025 104.171 211.371 104.404 211.371 104.404L210.646 100.326Z" fill="#FFB0B1"/>
<path d="M182.687 13.4669H182.492C174.769 13.4669 167.939 17.6023 164.011 23.7046C160.082 17.6023 153.252 13.4669 145.529 13.4669H145.335C139.539 13.5228 133.999 15.8911 129.919 20.0571C125.839 24.223 123.548 29.8501 123.545 35.7154C123.545 42.9988 126.697 53.3334 132.844 61.8373C144.555 78.0411 164.011 92.2178 164.011 92.2178C164.011 92.2178 183.466 78.0437 195.174 61.8373C201.324 53.3334 204.474 42.9988 204.474 35.7154C204.47 29.8505 202.18 24.2239 198.101 20.058C194.021 15.8921 188.482 13.5235 182.687 13.4669ZM179.909 63.084C179.03 63.0806 178.172 62.8082 177.448 62.3024C176.724 61.7967 176.169 61.0813 175.854 60.2502H171.237C170.933 60.2483 170.637 60.1504 170.39 59.9701C170.144 59.7898 169.959 59.5361 169.862 59.2445L168.444 54.9205L163.956 70.7891C163.869 71.0946 163.686 71.3631 163.435 71.5544C163.184 71.7456 162.878 71.8493 162.564 71.8498H162.473C162.145 71.8338 161.833 71.7043 161.588 71.4831C161.343 71.262 161.18 70.9624 161.127 70.6346L156.502 42.4855L153.122 59.1424C153.045 59.4588 152.865 59.7398 152.611 59.9406C152.357 60.1414 152.044 60.2504 151.722 60.2502H145.218C145.023 60.2586 144.828 60.2269 144.646 60.1572C144.463 60.0874 144.297 59.981 144.156 59.8444C144.015 59.7077 143.903 59.5437 143.826 59.362C143.75 59.1804 143.71 58.985 143.71 58.7875C143.71 58.59 143.75 58.3946 143.826 58.213C143.903 58.0313 144.015 57.8673 144.156 57.7306C144.297 57.594 144.463 57.4876 144.646 57.4178C144.828 57.3481 145.023 57.3164 145.218 57.3248H150.583L155.371 34.9297C155.45 34.5986 155.64 34.3054 155.908 34.1002C156.177 33.895 156.508 33.7906 156.844 33.8049C157.18 33.8191 157.501 33.9511 157.752 34.1782C158.002 34.4053 158.167 34.7136 158.218 35.0501L162.942 63.7649L166.964 49.5673C167.047 49.2683 167.224 49.0047 167.468 48.8159C167.712 48.6271 168.01 48.5232 168.317 48.5197H168.346C168.65 48.5198 168.946 48.6171 169.193 48.7977C169.439 48.9783 169.623 49.2329 169.717 49.5254L172.282 57.3326H175.797C176.047 56.5644 176.502 55.8809 177.111 55.3577C177.721 54.8345 178.461 54.4919 179.251 54.3676C180.041 54.2434 180.849 54.3424 181.587 54.6537C182.324 54.965 182.963 55.4765 183.431 56.1317C183.9 56.7869 184.18 57.5604 184.242 58.3668C184.304 59.1732 184.144 59.9812 183.78 60.7015C183.417 61.4218 182.864 62.0264 182.182 62.4487C181.5 62.871 180.717 63.0944 179.917 63.0945L179.909 63.084Z" fill="#4686FF"/>
</g>
<defs>
<linearGradient id="paint0_linear_2_18" x1="92.2232" y1="202.939" x2="92.2232" y2="41.781" gradientUnits="userSpaceOnUse">
<stop stop-color="#808080" stop-opacity="0.25"/>
<stop offset="0.54" stop-color="#808080" stop-opacity="0.12"/>
<stop offset="1" stop-color="#808080" stop-opacity="0.1"/>
</linearGradient>
<linearGradient id="paint1_linear_2_18" x1="231.232" y1="200.901" x2="231.232" y2="53.7132" gradientUnits="userSpaceOnUse">
<stop stop-color="#808080" stop-opacity="0.25"/>
<stop offset="0.54" stop-color="#808080" stop-opacity="0.12"/>
<stop offset="1" stop-color="#808080" stop-opacity="0.1"/>
</linearGradient>
<clipPath id="clip0_2_18">
<rect width="286" height="205" fill="white"/>
</clipPath>
</defs>
</svg>
