<svg width="315" height="269" viewBox="0 0 315 269" fill="none" xmlns="http://www.w3.org/2000/svg">
<g clip-path="url(#clip0_50_21)">
<path opacity="0.1" d="M122.76 269.199C139.565 269.199 153.189 265.608 153.189 261.179C153.189 256.75 139.565 253.159 122.76 253.159C105.955 253.159 92.3312 256.75 92.3312 261.179C92.3312 265.608 105.955 269.199 122.76 269.199Z" fill="#2A94F4"/>
<path opacity="0.1" d="M162.772 133.554C145.447 181.027 165.151 236.571 133.732 236.571C102.314 236.571 76.8625 190.442 76.8625 133.554C76.8625 76.665 102.327 30.5365 133.732 30.5365C165.137 30.5365 179.616 87.425 162.772 133.554Z" fill="#2A94F4"/>
<path d="M140.594 17.6095C140.594 17.6095 139.961 30.5365 144.774 39.4782L137.143 36.6388C137.143 36.6388 127.779 25.3308 140.594 17.6095Z" fill="#0B4870"/>
<path d="M141.254 144.114H115.761V198.064H141.254V144.114Z" fill="#F2F2F2"/>
<path d="M111.853 240.408L107.952 238.135L106.033 248.948L109.933 251.221L111.853 240.408Z" fill="#B97A59"/>
<path d="M104.514 254.878L115.555 261.304C116.27 257.269 115.046 252.96 112.819 251.664L112.365 251.39L112.063 247.231L111.004 246.608C110.096 248.501 108.653 249.224 107.346 248.451L105.82 247.555L104.514 254.878Z" fill="#0B4870"/>
<path d="M134.915 243.32H130.818V254.678H134.915V243.32Z" fill="#B97A59"/>
<path d="M136.813 245.064C136.235 243.893 141.322 192.285 141.996 179.458C142.67 166.655 141.996 117.538 141.996 117.538H125.304H119.034C119.034 117.538 112.874 194.975 112.021 201.974C111.169 208.973 106.659 242.822 106.659 242.822L112.503 246.035C112.503 246.035 120.588 208.874 122.086 198.064C123.241 189.77 127.985 161.998 130.13 149.544C130.309 148.523 131.134 148.772 131.12 149.843L130.116 245.089H136.813V245.064Z" fill="#4686FF"/>
<path d="M121.193 16.7378L121.206 16.9619C122.073 26.626 120.065 36.3897 115.913 42.6664L130.831 45.3066L129.621 15.7415L121.193 16.7378Z" fill="#0B4870"/>
<path d="M138.198 86.3866C145.633 84.1964 150.577 70.3468 149.24 55.4527C147.902 40.5586 140.791 30.26 133.356 32.4501C125.921 34.6403 120.977 48.4899 122.314 63.384C123.651 78.2782 130.763 88.5767 138.198 86.3866Z" fill="#0B4870"/>
<path d="M139.604 44.8333L141.295 46.2032C145.695 49.7899 150.411 55.3692 151.236 63.9871L155.127 91.0615C156.062 108.248 155.939 120.552 146.011 125.508L144.595 127.65L139.604 44.8333Z" fill="#F7F7F7"/>
<path d="M121.289 80.7747C127.478 80.7747 132.495 71.6863 132.495 60.4752C132.495 49.2641 127.478 40.1756 121.289 40.1756C115.1 40.1756 110.083 49.2641 110.083 60.4752C110.083 71.6863 115.1 80.7747 121.289 80.7747Z" fill="#0B4870"/>
<path d="M130.873 35.2191C136.241 35.2191 140.594 27.335 140.594 17.6095C140.594 7.88406 136.241 0 130.873 0C125.504 0 121.151 7.88406 121.151 17.6095C121.151 27.335 125.504 35.2191 130.873 35.2191Z" fill="#0B4870"/>
<path d="M138.215 44.0612H125.304V131.138H145.076L138.215 44.0612Z" fill="#FFBE55"/>
<path d="M138.215 44.0612L138.889 48.5694H126.046L127.683 44.3103C128.975 40.9727 129.456 36.8132 129.03 32.828L128.411 26.9L134.173 29.2164V34.3722C134.173 37.4109 135.025 40.2504 136.428 41.9441L138.215 44.0612Z" fill="#B97A59"/>
<path d="M139.233 12.1797L140.085 21.6694C140.539 26.7755 138.944 32.0309 134.833 33.6001C130.735 35.1693 127.146 27.4231 127.146 27.4231C130.13 26.3769 133.1 22.4914 132.605 17.0367L132.041 10.7102L132.248 10.6604C133.568 10.2619 134.448 8.02019 134.241 5.65398C136.606 4.98148 138.834 7.89565 139.233 12.1797Z" fill="#B97A59"/>
<path d="M128.411 42.0188L126.514 43.2642C122.911 45.6304 119.694 49.6156 117.164 54.8212L117.233 111.909C117.233 120.801 116.779 129.668 115.871 138.386L111.348 181.973C110.481 190.317 114.015 198.039 118.704 198.039H128.425V42.0188H128.411Z" fill="#F7F7F7"/>
<path d="M138.215 44.0612L139.246 65.8801C139.782 77.3375 139.906 88.8696 139.618 100.352L137.156 198.039H138.559C143.137 198.039 146.822 191.239 146.74 182.97L145.777 78.7323V64.1864C145.764 56.1911 142.574 45.3813 138.215 44.0612Z" fill="#F7F7F7"/>
<path d="M150.095 126.405H136.854C135.658 126.405 134.75 124.462 134.929 122.32L138.119 86.0302C138.27 84.3116 139.081 83.0662 140.044 83.0662H153.285C154.481 83.0662 155.389 85.009 155.21 87.151L152.02 123.441C151.869 125.16 151.058 126.405 150.095 126.405Z" fill="#FFBE55"/>
<path opacity="0.03" d="M150.095 126.405H136.854C135.658 126.405 134.75 124.462 134.929 122.32L138.119 86.0302C138.27 84.3116 139.081 83.0662 140.044 83.0662H153.285C154.481 83.0662 155.389 85.009 155.21 87.151L152.02 123.441C151.869 125.16 151.058 126.405 150.095 126.405Z" fill="black"/>
<path d="M152.529 117.563L149.93 114.649C148.871 113.752 148.184 111.859 148.184 109.792C148.184 108.098 149.105 106.853 150.04 107.276L151.594 107.974C152.295 108.297 152.941 108.895 153.491 109.742L153.656 110.439C154.124 112.507 153.89 114.898 153.051 116.542L152.529 117.563Z" fill="#B97A59"/>
<path d="M126.72 152.807C127.449 154.326 130.281 153.753 129.855 152.757L129.03 151.661C128.563 151.063 128.191 150.291 127.903 149.42C127.806 149.146 127.724 148.872 127.614 148.598C127.366 147.95 127.078 147.377 126.734 146.904L126.596 146.705L128.081 146.68C128.934 146.804 129.016 144.812 127.985 144.538L125.235 143.84L122.073 140.478L120.629 145.434L126.72 152.807Z" fill="#B97A59"/>
<path d="M117.164 54.8212C117.164 54.8212 107.731 80.1022 106.659 102.818C105.586 125.533 120.313 151.138 120.313 151.138L124.479 139.656L125.318 137.339C125.318 137.339 114.606 115.421 115.349 99.8787C116.091 84.3365 123.819 64.56 123.819 64.56C124.011 58.109 120.698 53.1773 117.246 54.7714L117.164 54.8212Z" fill="#F7F7F7"/>
<path d="M130.391 261.179H141.983C141.983 256.945 140.085 253.508 137.748 253.508H137.266L136.276 249.722H135.163C134.613 252.013 133.361 253.508 131.986 253.508H130.378V261.179H130.391Z" fill="#0B4870"/>
<path d="M123.654 171.986L123.172 169.196C120.862 170.516 118.387 168.175 117.672 163.965L116.903 159.482C115.885 153.554 117.714 147.228 120.972 145.385C124.176 143.566 127.6 146.804 128.59 152.608L128.975 154.849L130.515 153.978L130.13 151.736C128.865 144.413 124.547 140.303 120.491 142.595C116.38 144.936 114.07 152.882 115.362 160.354L116.132 164.837C117.122 170.591 120.491 173.779 123.654 171.986Z" fill="#FFBE55"/>
<path d="M132.289 184.439L132.536 184.29L132.055 181.5L131.807 181.65C130.776 182.248 129.662 181.176 129.346 179.308L127.091 166.282C126.349 161.998 127.669 157.44 130.034 156.12C132.399 154.775 134.915 157.166 135.644 161.45L137.899 174.476C138.229 176.344 137.637 178.362 136.606 178.935L137.087 181.724C138.971 180.653 140.016 177.017 139.439 173.605L137.184 160.578C136.18 154.775 132.756 151.537 129.552 153.33C126.349 155.148 124.561 161.35 125.551 167.154L127.806 180.18C128.397 183.617 130.419 185.51 132.289 184.439Z" fill="#FFBE55"/>
<path d="M128.837 148.299C128.837 148.299 125.4 148.149 125.084 148.025C124.767 147.9 127.476 152.558 127.71 152.857C127.944 153.156 128.837 153.679 128.837 153.679C128.837 153.679 130.171 153.928 130.639 152.483C131.106 151.039 129.649 148.349 128.837 148.299Z" fill="#B97A59"/>
<path d="M123.53 174.676C124.373 174.676 125.056 173.07 125.056 171.089C125.056 169.108 124.373 167.502 123.53 167.502C122.687 167.502 122.004 169.108 122.004 171.089C122.004 173.07 122.687 174.676 123.53 174.676Z" fill="#CCE9FF"/>
<path d="M136.991 181.799C137.523 181.799 137.954 181.019 137.954 180.056C137.954 179.093 137.523 178.312 136.991 178.312C136.46 178.312 136.029 179.093 136.029 180.056C136.029 181.019 136.46 181.799 136.991 181.799Z" fill="#CCE9FF"/>
<path d="M132.11 184.738C132.642 184.738 133.073 183.958 133.073 182.995C133.073 182.032 132.642 181.251 132.11 181.251C131.578 181.251 131.148 182.032 131.148 182.995C131.148 183.958 131.578 184.738 132.11 184.738Z" fill="#CCE9FF"/>
</g>
<g filter="url(#filter0_d_50_21)">
<path d="M279.647 161.861C277.788 163.811 275.669 165.571 273.341 167.102C266.91 171.345 258.863 173.864 250.126 173.864C244.025 173.864 238.261 172.637 233.153 170.452C225.912 177.639 214.343 176.984 214.343 176.984L223.438 164.515C216.378 158.582 212 150.316 212 141.167C212 133.031 215.463 125.59 221.195 119.869C223.223 117.846 225.536 116.035 228.079 114.487C226.535 118.273 225.694 122.343 225.694 126.581C225.694 146.785 244.791 163.162 268.345 163.162C272.26 163.162 276.047 162.711 279.647 161.861Z" fill="#2A94F4"/>
<path d="M288.251 141.167C288.251 149.021 285.027 156.226 279.647 161.861C276.048 162.711 272.26 163.162 268.346 163.162C244.791 163.162 225.694 146.786 225.694 126.581C225.694 122.343 226.535 118.273 228.079 114.487C234.304 110.7 241.909 108.471 250.126 108.471C271.182 108.47 288.251 123.107 288.251 141.167Z" fill="url(#paint0_linear_50_21)"/>
<path d="M298.206 152.701L308.381 166.653C308.381 166.653 295.436 167.385 287.337 159.346C284.897 160.386 282.324 161.233 279.647 161.861C276.048 162.711 272.26 163.162 268.346 163.162C244.791 163.162 225.694 146.785 225.694 126.581C225.694 122.343 226.535 118.273 228.079 114.487C233.901 100.225 249.732 90 268.345 90C291.902 90 311 106.374 311 126.581C311 136.815 306.104 146.063 298.206 152.701Z" fill="#CCE9FF"/>
<path d="M252.421 134.748C255.792 134.748 258.525 132.086 258.525 128.802C258.525 125.519 255.792 122.857 252.421 122.857C249.05 122.857 246.317 125.519 246.317 128.802C246.317 132.086 249.05 134.748 252.421 134.748Z" fill="#2A94F4"/>
<path d="M268.952 134.748C272.323 134.748 275.056 132.086 275.056 128.802C275.056 125.519 272.323 122.857 268.952 122.857C265.581 122.857 262.848 125.519 262.848 128.802C262.848 132.086 265.581 134.748 268.952 134.748Z" fill="#2A94F4"/>
<path d="M285.484 134.748C288.855 134.748 291.588 132.086 291.588 128.802C291.588 125.519 288.855 122.857 285.484 122.857C282.113 122.857 279.38 125.519 279.38 128.802C279.38 132.086 282.113 134.748 285.484 134.748Z" fill="#2A94F4"/>
</g>
<defs>
<filter id="filter0_d_50_21" x="208" y="90" width="107" height="95" filterUnits="userSpaceOnUse" color-interpolation-filters="sRGB">
<feFlood flood-opacity="0" result="BackgroundImageFix"/>
<feColorMatrix in="SourceAlpha" type="matrix" values="0 0 0 0 0 0 0 0 0 0 0 0 0 0 0 0 0 0 127 0" result="hardAlpha"/>
<feOffset dy="4"/>
<feGaussianBlur stdDeviation="2"/>
<feComposite in2="hardAlpha" operator="out"/>
<feColorMatrix type="matrix" values="0 0 0 0 0 0 0 0 0 0 0 0 0 0 0 0 0 0 0.25 0"/>
<feBlend mode="normal" in2="BackgroundImageFix" result="effect1_dropShadow_50_21"/>
<feBlend mode="normal" in="SourceGraphic" in2="effect1_dropShadow_50_21" result="shape"/>
</filter>
<linearGradient id="paint0_linear_50_21" x1="256.972" y1="108.47" x2="256.972" y2="163.162" gradientUnits="userSpaceOnUse">
<stop offset="0.3943" stop-color="#80E8BE"/>
<stop offset="1" stop-color="#00C278"/>
</linearGradient>
<clipPath id="clip0_50_21">
<rect width="264" height="269" fill="white" transform="translate(-11)"/>
</clipPath>
</defs>
</svg>
